<svg width="120" height="60" viewBox="0 0 120 60" fill="none" xmlns="http://www.w3.org/2000/svg">
<rect width="120" height="60" rx="4" fill="white"/>
<path d="M70.4563 3.46094H49.0612C46.2413 3.46094 43.9553 5.7469 43.9553 8.56677V30.0927C43.9553 32.9126 46.2413 35.1986 49.0612 35.1986H70.4563C73.2761 35.1986 75.5621 32.9126 75.5621 30.0927V8.56677C75.5621 5.7469 73.2761 3.46094 70.4563 3.46094Z" fill="url(#paint0_linear_2026_112)"/>
<path d="M59.9973 17.1243C60.8046 17.1243 61.4164 16.9514 61.8334 16.5976C62.2505 16.2438 62.4588 15.7286 62.4588 15.0439C62.4588 14.3679 62.2505 13.8544 61.8334 13.5033C61.4137 13.1433 60.8044 12.9633 59.9973 12.9633H57.1629V17.1245L59.9973 17.1243ZM60.1701 25.7232C61.1989 25.7232 61.9707 25.5084 62.4853 25.0781C63.0087 24.648 63.2704 23.9984 63.2704 23.1293C63.2704 22.2775 63.0131 21.6413 62.4986 21.22C61.984 20.79 61.2081 20.5749 60.1703 20.5749H57.1631V25.7237H60.1703M64.9337 18.6526C66.0337 18.9686 66.8852 19.5525 67.4884 20.4038C68.0915 21.2551 68.393 22.3 68.3932 23.5379C68.3932 25.4341 67.7456 26.8476 66.4507 27.7781C65.1557 28.7087 63.1867 29.1738 60.5432 29.1738H52.041V9.51367H59.7319C62.4904 9.51367 64.4864 9.92599 65.7191 10.7514C66.961 11.5765 67.5819 12.8979 67.5819 14.7151C67.5819 15.672 67.3558 16.4883 66.9035 17.1643C66.4512 17.8314 65.7924 18.3247 64.9342 18.6523" fill="white"/>
<path d="M15.4271 45.7606V51.1006H18.5911C19.6511 51.1006 20.4371 50.8826 20.9451 50.4466C21.4591 50.0036 21.7151 49.3296 21.7151 48.4266C21.7151 47.5266 21.4581 46.8446 20.9451 46.4146C20.4371 45.9786 19.6531 45.7606 18.5911 45.7606H15.4271ZM15.4271 39.7646V44.1596H18.3471C19.3111 44.1596 20.0271 43.9796 20.4951 43.6226C20.9701 43.2576 21.2081 42.7046 21.2081 41.9626C21.2081 41.2266 20.9701 40.6766 20.4951 40.3126C20.0201 39.9486 19.3101 39.7656 18.3471 39.7656L15.4271 39.7646ZM13.4541 38.1456H18.4941C19.9981 38.1456 21.1571 38.4586 21.9711 39.0836C22.7851 39.7086 23.1911 40.5976 23.1911 41.7496C23.1911 42.6416 22.9831 43.3516 22.5661 43.8796C22.1491 44.4076 21.5361 44.7356 20.7301 44.8656C21.7001 45.0736 22.4521 45.5106 22.9861 46.1656C23.5261 46.8236 23.7861 47.6456 23.7861 48.6356C23.7861 49.9376 23.3431 50.9436 22.4581 51.6536C21.5731 52.3636 20.3131 52.7176 18.6781 52.7176H13.4441V38.1406" fill="#230F3D"/>
<path d="M31.225 43.0445C30.7801 43.0295 30.3385 43.1252 29.9397 43.323C29.5409 43.5207 29.1974 43.8143 28.94 44.1775C28.38 44.9275 28.1 45.9545 28.1 47.2635C28.1 48.5725 28.377 49.6035 28.93 50.3595C29.49 51.1095 30.255 51.4825 31.225 51.4825C31.6684 51.4967 32.1083 51.4006 32.5054 51.2028C32.9024 51.0051 33.2442 50.7119 33.5 50.3495C34.06 49.5945 34.34 48.5655 34.34 47.2635C34.34 45.9675 34.06 44.9435 33.5 44.1875C32.94 43.4255 32.182 43.0445 31.225 43.0445M31.225 41.5215C32.787 41.5215 34.025 42.0295 34.907 43.0445C35.789 44.0595 36.245 45.4665 36.245 47.2645C36.245 49.0625 35.799 50.4615 34.907 51.4845C34.015 52.5005 32.787 53.0075 31.225 53.0075C29.655 53.0075 28.425 52.4995 27.525 51.4845C26.64 50.4625 26.197 49.0565 26.197 47.2645C26.197 45.4675 26.64 44.0615 27.525 43.0445C28.417 42.0285 29.647 41.5215 31.225 41.5215" fill="#230F3D"/>
<path d="M43.352 43.0445C42.9071 43.0295 42.4655 43.1252 42.0667 43.323C41.6679 43.5207 41.3244 43.8143 41.067 44.1775C40.507 44.9275 40.227 45.9545 40.227 47.2635C40.227 48.5725 40.504 49.6035 41.057 50.3595C41.617 51.1095 42.382 51.4825 43.352 51.4825C43.7953 51.4967 44.2353 51.4006 44.6323 51.2028C45.0294 51.0051 45.3712 50.7119 45.627 50.3495C46.187 49.5945 46.467 48.5655 46.467 47.2635C46.467 45.9675 46.187 44.9435 45.627 44.1875C45.067 43.4255 44.309 43.0445 43.352 43.0445M43.352 41.5215C44.914 41.5215 46.152 42.0295 47.034 43.0445C47.916 44.0595 48.372 45.4665 48.372 47.2645C48.372 49.0625 47.926 50.4615 47.034 51.4845C46.142 52.5005 44.914 53.0075 43.352 53.0075C41.782 53.0075 40.552 52.4995 39.652 51.4845C38.767 50.4625 38.324 49.0565 38.324 47.2645C38.324 45.4675 38.767 44.0615 39.652 43.0445C40.544 42.0285 41.774 41.5215 43.352 41.5215" fill="#230F3D"/>
<path d="M53.0171 38.6787V41.7837H56.7171V43.1797H53.0171V49.1177C53.0171 50.0097 53.1371 50.5827 53.3771 50.8377C53.6241 51.0917 54.1221 51.2177 54.8711 51.2177H56.7171V52.7217H54.8701C53.4831 52.7217 52.5261 52.4647 52.0001 51.9517C51.4731 51.4317 51.2001 50.4867 51.2001 49.1197V43.1797H49.8821V41.7837H51.2001V38.6807H53.0071M65.9531 42.1077V43.8077C65.4512 43.5495 64.9201 43.3528 64.3711 43.2217C63.8241 43.0917 63.2581 43.0267 62.6711 43.0267C61.7791 43.0267 61.1081 43.1637 60.6591 43.4267C60.2161 43.6997 59.9951 44.1107 59.9951 44.6567C59.9951 45.0737 60.1551 45.4017 60.4751 45.6427C60.7951 45.8767 61.4351 46.1027 62.3991 46.3167L63.0141 46.4537C64.2901 46.7267 65.1941 47.1137 65.7291 47.6157C66.2691 48.1107 66.5291 48.8037 66.5291 49.6957C66.5435 50.1656 66.4414 50.6316 66.2321 51.0525C66.0227 51.4733 65.7125 51.8358 65.3291 52.1077C64.5291 52.6997 63.4251 53.0077 62.0291 53.0077C61.4431 53.0077 60.8311 52.9477 60.1931 52.8317C59.5611 52.7317 58.8931 52.5517 58.1911 52.3237V50.4687C58.8551 50.8137 59.5091 51.0737 60.1541 51.2487C60.7785 51.4154 61.4218 51.5008 62.0681 51.5027C62.9141 51.5027 63.5651 51.3597 64.0211 51.0727C64.4771 50.7797 64.7051 50.3697 64.7051 49.8427C64.7051 49.3547 64.5391 48.9797 64.2071 48.7197C63.8811 48.4597 63.1621 48.2197 62.0491 47.9677L61.4241 47.8217C60.3111 47.5877 59.5071 47.2297 59.0121 46.7477C58.5171 46.2597 58.2701 45.5917 58.2701 44.7457C58.2701 43.7157 58.6351 42.9227 59.3641 42.3627C60.0931 41.8027 61.1281 41.5227 62.4691 41.5227C63.097 41.5197 63.7242 41.5686 64.3441 41.6687C64.8984 41.7576 65.4417 41.9048 65.9651 42.1077M71.0981 38.6777V41.7827H74.7981V43.1787H71.0981V49.1167C71.0981 50.0087 71.2181 50.5817 71.4581 50.8367C71.7051 51.0907 72.2031 51.2167 72.9521 51.2167H74.8001V52.7207H72.9541C71.5671 52.7207 70.6101 52.4637 70.0841 51.9507C69.5571 51.4307 69.2841 50.4857 69.2841 49.1187V43.1787H67.9661V41.7827H69.2841V38.6807H71.1001M83.4001 43.4657C83.1935 43.3467 82.9694 43.261 82.7361 43.2117C82.4808 43.15 82.2187 43.1204 81.9561 43.1237C80.9401 43.1237 80.1591 43.4557 79.6121 44.1197C79.0721 44.7777 78.8121 45.7247 78.8121 46.9617V52.7237H77.0051V41.7837H78.8121V43.4837C79.1901 42.8197 79.6821 42.3277 80.2871 42.0087C80.8921 41.6827 81.6271 41.5207 82.4941 41.5207C82.6312 41.5216 82.7682 41.5313 82.9041 41.5497L83.4021 41.6177L83.4121 43.4637M90.1861 47.2237C88.7341 47.2237 87.7281 47.3897 87.1681 47.7217C86.6081 48.0537 86.3281 48.6197 86.3281 49.4217C86.3281 50.0597 86.5361 50.5677 86.9531 50.9447C87.3761 51.3147 87.9491 51.5017 88.6731 51.5017C89.6691 51.5017 90.4671 51.1497 91.0661 50.4467C91.6711 49.7467 91.9741 48.7967 91.9741 47.6247V47.2247H90.1871M93.7711 46.4827V52.7227H91.9741V51.0627C91.5741 51.7267 91.0541 52.2187 90.4411 52.5377C89.8291 52.8497 89.0811 53.0077 88.1951 53.0077C87.0751 53.0077 86.1831 52.6957 85.5191 52.0707C84.8611 51.4387 84.5331 50.5957 84.5331 49.5407C84.5331 48.3107 84.9331 47.3827 85.7631 46.7577C86.5931 46.1327 87.8201 45.8207 89.4631 45.8207H91.9831V45.6447C91.9831 44.8177 91.7101 44.1797 91.1631 43.7307C90.6231 43.2747 89.8611 43.0467 88.8781 43.0467C88.2531 43.0467 87.6441 43.1217 87.0521 43.2717C86.4561 43.4229 85.8818 43.6494 85.3431 43.9457V42.2857C86.0011 42.0317 86.6391 41.8427 87.2571 41.7197C87.851 41.5923 88.4566 41.5269 89.0641 41.5247C90.6461 41.5247 91.8281 41.9247 92.6091 42.7547C93.3901 43.5847 93.7811 44.8187 93.7811 46.4847M99.1311 51.0807V56.8807H97.3241V41.7847H99.1311V43.4447C99.5091 42.7947 99.9841 42.3117 100.557 41.9997C101.137 41.6797 101.827 41.5197 102.627 41.5197C103.253 41.5054 103.873 41.6415 104.436 41.9168C104.998 42.1921 105.486 42.5985 105.859 43.1017C106.692 44.1567 107.109 45.5417 107.109 47.2617C107.109 48.9817 106.692 50.3667 105.859 51.4217C105.486 51.925 104.998 52.3313 104.436 52.6066C103.873 52.8819 103.253 53.0181 102.627 53.0037C101.827 53.0037 101.127 52.8477 100.557 52.5337C99.9841 52.2137 99.5091 51.7297 99.1311 51.0787M105.244 47.2607C105.244 45.9387 104.971 44.9037 104.424 44.1557C103.884 43.4007 103.138 43.0227 102.188 43.0227C101.749 43.008 101.313 43.104 100.92 43.302C100.528 43.5 100.191 43.7936 99.9421 44.1557C99.4021 44.9057 99.1421 45.9397 99.1421 47.2607C99.1421 48.5817 99.4121 49.6207 99.9421 50.3757C100.489 51.1257 101.238 51.4987 102.188 51.4987C103.138 51.4987 103.884 51.1247 104.424 50.3757C104.971 49.6207 105.244 48.5817 105.244 47.2607Z" fill="#230F3D"/>
<defs>
<linearGradient id="paint0_linear_2026_112" x1="45.7787" y1="33.5527" x2="73.617" y2="5.22823" gradientUnits="userSpaceOnUse">
<stop stop-color="#070135"/>
<stop offset="1" stop-color="#612D50"/>
</linearGradient>
</defs>
</svg>
