<svg width="120" height="60" viewBox="0 0 120 60" fill="none" xmlns="http://www.w3.org/2000/svg">
<rect width="120" height="60" rx="4" fill="white"/>
<path d="M6.29999 21.4746H12V27.1046H17.213V21.4746H22.913V38.5246H17.213V32.8246H12V38.5246H6.29999V21.4746ZM30.407 27.1296H25.38V21.4756H41.116V27.1296H36.096V38.5266H30.396V27.1296H30.407ZM43.614 21.4746H49.557L53.213 27.4746L56.865 21.4746H62.8V38.5246H57.124V30.0726L53.204 36.1356H53.106L49.2 30.0736V38.5256H43.624L43.614 21.4746ZM65.644 21.4746H71.344V32.8996H79.359V38.5356H65.645L65.644 21.4746Z" fill="black"/>
<path d="M82.07 12.0605H113.707L110.825 44.3485L97.87 47.9405L84.95 44.3535L82.07 12.0605Z" fill="#E44D26"/>
<path d="M108.36 42.2932L110.823 14.7012H97.9V45.1952L108.36 42.2932Z" fill="#F16529"/>
<path d="M92.65 26.6781L92.288 22.6221H97.9V18.6621H87.97L89.038 30.6391H97.9V26.6791L92.65 26.6781ZM89.204 32.6201L89.759 38.8401L97.872 41.0921L97.89 41.0871V36.9671L97.873 36.9721L93.473 35.7721L93.191 32.6121H91.048L89.204 32.6201Z" fill="#EBEBEB"/>
<path d="M106.986 27.7403L107.083 26.6763H97.877V30.6363H102.754L102.294 35.7733L97.877 36.9653V41.0853L105.997 38.8353L106.057 38.1653L106.986 27.7403ZM97.886 22.6223H107.453L107.808 18.6523H97.886V22.6023V22.6223Z" fill="white"/>
</svg>
