<svg width="120" height="60" viewBox="0 0 120 60" fill="none" xmlns="http://www.w3.org/2000/svg">
<rect width="120" height="60" rx="4" fill="white"/>
<path d="M52.5382 26.5173L51.8002 29.1313L52.5382 26.5163V26.5173Z" fill="#131B28"/>
<path d="M74.2202 20.5274H70.8402C70.6522 20.5274 70.4662 20.6774 70.4262 20.8614L68.0262 31.9684C67.9862 32.1514 67.8002 32.3014 67.6132 32.3014H65.2202C62.8522 32.3014 63.1262 30.6644 63.6202 28.4214L63.6352 28.3534L63.9222 26.8234L64.0462 26.1934L65.1382 20.8614C65.1762 20.6774 65.0532 20.5264 64.8652 20.5264H61.3952C61.2996 20.5297 61.2076 20.5641 61.1332 20.6244C61.0589 20.6847 61.0062 20.7675 60.9832 20.8604L59.4002 28.2744C58.5402 32.1984 58.7682 35.9404 63.4402 36.0574H70.9072C71.0952 36.0574 71.2802 35.9074 71.3202 35.7234L74.4822 20.8574C74.5222 20.6734 74.3992 20.5234 74.2122 20.5234L74.2202 20.5274ZM87.7002 32.3404C87.8882 32.3404 88.0002 32.4904 87.9732 32.6744L87.6452 34.2794" fill="#131B28"/>
<path d="M78.667 30.2741C78.664 30.0981 78.864 29.7961 79.052 29.7961L78.63 29.7891C78.43 31.7031 78.667 30.2741 78.667 30.2741ZM87.7 32.3511C87.888 32.3511 88 32.5011 87.973 32.6851L87.6 34.5411" fill="#131B28"/>
<path d="M87.3171 35.8864L87.5921 34.5424L87.3171 35.8874V35.8864ZM31.7121 30.3144L32.2371 27.9864L31.6371 30.6464L31.5671 30.9804L31.7131 30.3124L31.7121 30.3144ZM38.0001 20.4894H34.2871C34.1911 20.4932 34.0989 20.5275 34.0239 20.5874C33.9489 20.6474 33.895 20.7297 33.8701 20.8224L33.1661 23.9224C33.1543 23.9625 33.1523 24.0049 33.1603 24.046C33.1684 24.087 33.1862 24.1255 33.2123 24.1582C33.2384 24.1909 33.272 24.2168 33.3103 24.2337C33.3486 24.2507 33.3903 24.2581 33.4321 24.2554H37.1741C37.3621 24.2554 37.5481 24.1054 37.5881 23.9224L38.2681 20.8154C38.3081 20.6324 38.1881 20.4824 37.9981 20.4824L38.0001 20.4894ZM26.4141 42.3514L29.4761 42.3754C28.5721 42.3754 27.0791 42.3584 26.4131 42.3504L26.4141 42.3514Z" fill="#131B28"/>
<path d="M36.9331 25.324H33.2001C33.1042 25.3278 33.0119 25.3621 32.9369 25.422C32.8619 25.4819 32.808 25.5643 32.7831 25.657L31.7331 30.313L31.5871 30.981L30.5871 35.734C30.5375 35.9557 30.4775 36.175 30.4071 36.391C30.4071 36.391 29.7071 38.471 28.5331 38.448L27.3681 38.426C27.2725 38.4287 27.1803 38.4617 27.1048 38.5204C27.0293 38.579 26.9744 38.6601 26.9481 38.752L26.1721 42.014C26.1598 42.0539 26.1574 42.0962 26.1649 42.1372C26.1724 42.1782 26.1897 42.2169 26.2153 42.2498C26.2409 42.2828 26.2741 42.3091 26.312 42.3265C26.3499 42.3439 26.3914 42.352 26.4331 42.35L29.4961 42.375C32.4321 42.375 33.9791 40.748 34.9721 36.068L37.2221 25.668C37.2621 25.485 37.1401 25.335 36.9521 25.335L36.9331 25.324ZM90.0931 36.061C89.9051 36.061 89.7931 35.911 89.8231 35.727L92.6401 22.541" fill="#131B28"/>
<path d="M89.865 35.8938C89.842 35.8018 89.855 35.5768 89.895 35.3938L91.231 29.1338L89.823 35.7268C89.783 35.9108 89.905 36.0608 90.093 36.0608H90.435C90.247 36.0608 89.887 35.9858 89.865 35.8938ZM93.785 35.9858C93.683 36.0258 93.445 36.0608 93.257 36.0608H93.599C93.6945 36.0571 93.7861 36.0223 93.8601 35.9619C93.934 35.9015 93.9863 35.8186 94.009 35.7258L94.077 35.3918C94.04 35.5758 93.877 35.9448 93.777 35.9858H93.785ZM105.685 23.4238L105.84 24.0638C105.883 24.2468 105.764 24.3958 105.577 24.3968" fill="#131B28"/>
<path d="M95.0802 30.4302L95.2182 29.7662L95.7552 27.2512L95.1472 30.0992L95.0802 30.4302ZM92.6852 22.3242L92.5682 22.8742L91.2322 29.1342L92.6402 22.5412L92.6852 22.3252V22.3242Z" fill="#131B28"/>
<path d="M105.84 24.0646L105.685 23.4246L105.455 22.4246C105.151 21.2446 104.259 20.5616 102.321 20.5616L93.4012 20.5556C93.3056 20.5589 93.2136 20.5933 93.1392 20.6536C93.0649 20.7138 93.0122 20.7967 92.9892 20.8896L92.8512 21.5426L92.6512 22.5296L89.9072 35.3826C89.8672 35.5666 89.8542 35.7826 89.8772 35.8826C89.9002 35.9826 90.2602 36.0496 90.4472 36.0496H93.2672C93.4552 36.0496 93.6922 36.0156 93.7952 35.9746C93.8982 35.9336 94.0492 35.5746 94.0952 35.3806L95.1652 30.0866L96.3102 24.7226C96.3502 24.5396 96.5352 24.3906 96.7222 24.3896L105.595 24.3856C105.782 24.3856 105.901 24.2356 105.858 24.0526L105.84 24.0646ZM117.262 18.2706L116.579 18.2736H113.739C113.635 18.2798 113.534 18.3082 113.442 18.3568C113.35 18.4054 113.269 18.4732 113.205 18.5556L106.925 27.7556C106.819 27.9106 106.698 27.8876 106.655 27.7056L106.193 25.6786C106.168 25.5859 106.114 25.5035 106.039 25.4436C105.964 25.3837 105.872 25.3494 105.776 25.3456H101.739C101.551 25.3456 101.439 25.4926 101.491 25.6736L103.291 32.0116C103.343 32.1916 103.346 32.4886 103.301 32.6716L102.501 35.7386C102.488 35.7779 102.484 35.82 102.491 35.8611C102.498 35.9022 102.514 35.9409 102.54 35.9738C102.565 36.0067 102.599 36.0327 102.637 36.0494C102.675 36.0661 102.717 36.0731 102.758 36.0696H106.758C106.946 36.0696 107.138 35.9196 107.184 35.7396L107.984 32.6726C108.047 32.4567 108.145 32.2526 108.274 32.0686L118.47 18.5366C118.583 18.3866 118.522 18.2646 118.334 18.2666L117.264 18.2736L117.262 18.2706ZM85.1862 26.2086C85.1622 26.4086 84.9742 26.5586 84.7862 26.5586H79.6662C79.4892 26.5586 79.3992 26.4386 79.4262 26.2886L79.4302 26.2616L79.4532 26.1746C79.9532 24.8746 80.9382 24.0216 82.8092 24.0216C84.9162 24.0216 85.3272 25.0516 85.1842 26.2086H85.1862ZM83.6862 20.3006C77.1162 20.3006 75.5592 24.2886 74.6862 28.3136C73.8122 32.4166 73.8882 36.2536 80.6862 36.2536H81.7642L82.5942 36.2506L86.9202 36.2246C87.0151 36.2202 87.1061 36.1852 87.1794 36.1248C87.2528 36.0644 87.3046 35.9819 87.3272 35.8896L87.9842 32.6776C88.0222 32.4936 87.8992 32.3436 87.7112 32.3436H81.6002C79.1702 32.3436 78.4472 31.6976 78.7132 29.7986H88.4832C88.6432 29.7956 88.7882 29.6986 88.8452 29.5466C88.8552 29.5196 88.8652 29.4906 88.8692 29.4616C90.3192 23.9916 89.9032 20.3046 83.6892 20.3046L83.6862 20.3006ZM52.6302 26.1876L52.5382 26.5146L51.8002 29.1306L51.0622 31.7446C51.0315 31.8368 50.9736 31.9175 50.8962 31.976C50.8187 32.0346 50.7252 32.0683 50.6282 32.0726H46.7232C43.7612 32.0726 43.0402 29.7556 43.7612 26.3386C44.4812 22.8436 45.8962 20.6706 48.8112 20.4506C52.7952 20.1506 53.5912 22.9526 52.6312 26.1866L52.6302 26.1876ZM55.3082 31.8726C55.3082 31.8726 57.1482 27.4026 57.5682 24.8196C58.1382 21.3626 56.4082 16.3496 49.7232 16.3496C43.0762 16.3496 40.1902 21.1356 39.0892 26.3496C37.9892 31.5896 39.4312 36.1856 46.0392 36.1496L56.1252 36.1126C56.2219 36.108 56.3148 36.0736 56.3913 36.0142C56.4677 35.9548 56.5239 35.8732 56.5522 35.7806L57.4022 32.5426C57.416 32.5034 57.4197 32.4614 57.4131 32.4203C57.4066 32.3793 57.3899 32.3406 57.3646 32.3076C57.3392 32.2746 57.3061 32.2485 57.2682 32.2316C57.2302 32.2146 57.1886 32.2074 57.1472 32.2106H55.5202C55.3602 32.2096 55.2702 32.1066 55.2882 31.9706C55.2912 31.9456 55.2982 31.9206 55.3082 31.8946V31.8726Z" fill="#131B28"/>
<path d="M88.2102 28.8802C88.2102 29.0042 88.1102 29.1042 87.9862 29.1042C87.8622 29.1042 87.7622 29.0042 87.7622 28.8802C87.7622 28.7562 87.8622 28.6562 87.9862 28.6562C88.1102 28.6562 88.2102 28.7562 88.2102 28.8802Z" fill="#131B28"/>
<path d="M4.55711 23.0662C2.72211 25.7042 2.95011 29.1362 4.35211 31.9382L4.45511 32.1382L4.52111 32.2642L4.56111 32.3372L4.63411 32.4672L4.76811 32.6972L4.84411 32.8232L4.99911 33.0662L5.06511 33.1682L5.29011 33.4932L5.33411 33.5532L5.53911 33.8262L5.61611 33.9242L5.81611 34.1572L5.88811 34.2442L6.15211 34.5462L6.16811 34.5632L6.43611 34.8462L6.52211 34.9332L6.73611 35.1332L6.82411 35.2162L7.11711 35.4832L7.17311 35.5302L7.44011 35.7552L7.54011 35.8432L7.76211 36.0172L7.88211 36.1172L8.13211 36.2972L8.24811 36.3792L8.49011 36.5392L8.59511 36.6092L8.97511 36.8412L9.08011 36.9012L9.36511 37.0612L9.52311 37.1412L9.72711 37.2472L9.77411 37.2702L9.85711 37.3102L10.1801 37.4602L10.2481 37.4902L10.6251 37.6462L10.7171 37.6822L11.0721 37.8142L11.1171 37.8302L11.5131 37.9602L11.6091 37.9882L12.0091 38.1042C20.8841 39.7242 23.4621 32.7702 23.4621 32.7702C21.2971 35.5902 17.4621 36.3352 13.8121 35.5072C13.6741 35.4772 13.5401 35.4332 13.4061 35.3932L13.3061 35.3632C13.1754 35.323 13.0454 35.2806 12.9161 35.2362L12.8621 35.2162C12.7461 35.1762 12.6321 35.1322 12.5171 35.0882L12.4201 35.0502C12.2948 35.0008 12.1705 34.9491 12.0471 34.8952L11.9731 34.8622L11.6591 34.7162L11.5591 34.6722C11.4771 34.6322 11.3971 34.5902 11.3161 34.5482L11.1541 34.4632C11.0562 34.4106 10.9591 34.3562 10.8631 34.3002L10.7651 34.2452C10.6373 34.1698 10.5106 34.0924 10.3851 34.0132C10.3501 33.9912 10.3171 33.9672 10.2831 33.9452L10.0131 33.7652C9.98311 33.7452 9.95511 33.7252 9.92611 33.7052L9.67111 33.5202L9.55811 33.4352L9.32811 33.2552L9.22511 33.1732L8.93811 32.9312C8.92811 32.9212 8.91811 32.9142 8.90811 32.9052C8.80611 32.8052 8.70611 32.7232 8.60611 32.6312L8.52111 32.5492L8.30411 32.3372L8.21911 32.2522C8.12886 32.16 8.04018 32.0664 7.95311 31.9712C7.85699 31.8661 7.76265 31.7594 7.67011 31.6512L7.60011 31.5672L7.40611 31.3272L7.33611 31.2272L7.11211 30.9292C5.10011 28.1772 4.37311 24.3732 6.00011 21.2492M10.2631 20.8442C8.93611 22.7442 9.00811 25.3112 10.0431 27.3302C10.2164 27.6697 10.4126 27.9971 10.6301 28.3102C10.8301 28.5952 11.0501 28.9342 11.3131 29.1632L11.6111 29.4632L11.6891 29.5402L11.9931 29.8232L12.0081 29.8362L12.3631 30.1302L12.4431 30.1932L12.8151 30.4632L13.0751 30.6362L13.3501 30.8062L13.3901 30.8292L13.6341 30.9652L13.7211 31.0102L13.8911 31.0982L13.9171 31.1102L14.2721 31.2762L14.3501 31.3082L14.6501 31.4262L14.7751 31.4722L15.0421 31.5652L15.1621 31.6052C15.2901 31.6452 15.4161 31.7052 15.5491 31.7172C22.4021 32.8522 23.9841 27.5772 23.9841 27.5772C22.5581 29.6312 19.7961 30.6112 16.8491 29.8472L16.4611 29.7352L16.3441 29.6972L16.0741 29.6032L15.9511 29.5572L15.6591 29.4392L15.5791 29.4062L15.2221 29.2402L15.0421 29.1402L14.9391 29.0872L14.6591 28.9272L14.3841 28.7592L14.1241 28.5862L13.7541 28.3162L13.6711 28.2502C12.3711 27.2322 11.3581 25.8502 10.8711 24.2622C10.3711 22.6252 10.4711 20.7882 11.3541 19.2972M15.0441 19.1842C14.2621 20.3342 14.1841 21.7642 14.7281 23.0372C15.3001 24.3872 16.4741 25.4372 17.8431 25.9372L18.0131 25.9972L18.0881 26.0212L18.3321 26.0912C22.1161 26.8212 23.1321 24.1492 23.4151 23.7562C22.5151 25.0502 21.0151 25.3612 19.1511 24.9112C18.9994 24.8711 18.8492 24.8251 18.7011 24.7732C18.5197 24.7089 18.3418 24.6352 18.1681 24.5522C17.8386 24.3936 17.5258 24.2027 17.2341 23.9822C15.5741 22.7222 14.5341 20.3222 15.6271 18.3672" fill="#0868AC"/>
</svg>
