<svg width="120" height="60" viewBox="0 0 120 60" fill="none" xmlns="http://www.w3.org/2000/svg">
<rect width="120" height="60" rx="4" fill="white"/>
<path fill-rule="evenodd" clip-rule="evenodd" d="M16.8154 25.6303C18.1566 20.2609 21.5131 17.5762 26.8813 17.5762C34.9354 17.5762 35.9401 23.6139 39.966 24.6221C42.6507 25.2938 44.999 24.2879 47.0119 21.6032C45.6707 26.9715 42.3143 29.6562 36.9472 29.6562C28.8931 29.6562 27.8884 23.6185 23.8625 22.6103C21.1778 21.9385 18.8295 22.9444 16.8166 25.6291L16.8154 25.6303ZM6.74951 37.7103C8.09301 32.3409 11.446 29.6562 16.8154 29.6562C24.8695 29.6562 25.8743 35.6939 29.9001 36.7021C32.5848 37.3738 34.9331 36.3679 36.946 33.6832C35.6048 39.0526 32.2484 41.7373 26.8801 41.7373C18.8261 41.7373 17.8213 35.6996 13.7954 34.6914C11.1107 34.0197 8.76246 35.0256 6.74951 37.7103Z" fill="url(#paint0_linear_2026_133)"/>
<path fill-rule="evenodd" clip-rule="evenodd" d="M55.4823 18.1105H52.0237V16.0386H61.3546V18.1105H57.8975V27.508H55.4823V18.1105ZM65.8719 26.4478C65.5518 26.8124 65.1737 27.1216 64.7528 27.3628C64.3414 27.5987 63.8076 27.7167 63.1528 27.7167C62.7913 27.7185 62.4314 27.6696 62.0835 27.5715C61.7448 27.4747 61.4484 27.325 61.1973 27.1223C60.9463 26.9197 60.7436 26.6611 60.5954 26.3435C60.4472 26.0259 60.3686 25.6508 60.3686 25.2093C60.3686 24.6316 60.4971 24.1597 60.7557 23.7952C61.0149 23.4293 61.3639 23.1361 61.769 22.9438C62.1864 22.7397 62.6552 22.596 63.1754 22.5098C63.7004 22.4233 64.2302 22.3698 64.7618 22.3495L65.8386 22.3011V21.8837C65.8386 21.3695 65.698 21.0156 65.4121 20.8251C65.1263 20.6345 64.7921 20.5377 64.408 20.5377C63.5157 20.5377 63.0076 20.875 62.8805 21.551L60.8238 21.3589C60.972 20.4818 61.3592 19.8466 61.9807 19.4534C62.6023 19.0602 63.4401 18.8666 64.4911 18.8666C65.1339 18.8666 65.6813 18.9423 66.132 19.0995C66.5827 19.2568 66.9456 19.4776 67.2178 19.765C67.4969 20.0638 67.7011 20.4245 67.8137 20.8175C67.9377 21.2289 67.9982 21.6947 67.9982 22.2088V27.5095H65.8719V26.4509V26.4478ZM65.8235 23.765L64.8254 23.8134C64.3535 23.8331 63.9724 23.883 63.6836 23.9586C63.3947 24.0342 63.1694 24.128 63.0182 24.2399C62.8669 24.3518 62.7565 24.4818 62.7051 24.6331C62.6537 24.7843 62.625 24.9506 62.625 25.1321C62.625 25.4104 62.7218 25.6312 62.9123 25.79C63.1029 25.9488 63.3736 26.0319 63.7138 26.0319C64.2946 26.0319 64.7664 25.8989 65.1293 25.6297C65.3335 25.4784 65.5014 25.2879 65.6284 25.0595C65.7554 24.8312 65.8205 24.5423 65.8205 24.2005V23.7665L65.8235 23.765ZM69.8251 19.1222H72.0784V27.5065H69.8251V19.1222ZM69.7948 16.0371H72.1086V18.0606H69.7948V16.0371ZM74.0051 16.0371H76.2584V27.5065H74.0051V16.0371ZM77.2671 19.1222H79.711L80.8861 24.6799L82.4921 19.2024H84.4551L85.9674 24.6966L87.1425 19.1389H89.4911L87.0457 27.5231H84.8574L83.3602 21.9971L81.8479 27.5231H79.7095L77.2656 19.1389L77.2671 19.1222ZM90.5149 19.1222H92.7683V27.5065H90.5149V19.1222ZM90.4847 16.0371H92.7985V18.0606H90.4847V16.0371ZM94.6798 19.1222H96.8681V20.2791C97.2008 19.7876 97.594 19.4277 98.0477 19.2024C98.5014 18.977 98.9778 18.8651 99.4693 18.8651C100.425 18.8651 101.133 19.1147 101.594 19.6122C102.055 20.1098 102.287 20.8946 102.287 21.9654V27.5065H100.035V22.2724C100.035 21.6674 99.923 21.2818 99.6962 21.067C99.4693 20.8523 99.1714 20.7464 98.7963 20.7464C98.509 20.7464 98.2579 20.7918 98.0477 20.875C97.8375 20.9582 97.6424 21.0837 97.461 21.244C97.3097 21.3952 97.1842 21.5737 97.0829 21.7824C96.9815 21.9953 96.9298 22.2285 96.9317 22.4644V27.508H94.6632V19.1237L94.6798 19.1222ZM109.924 26.3994C109.35 27.2748 108.365 27.7914 107.318 27.7651C106.139 27.7651 105.261 27.3688 104.679 26.5764C104.097 25.7839 103.811 24.686 103.811 23.2841C103.804 22.678 103.889 22.0744 104.062 21.4935C104.229 20.9521 104.466 20.4863 104.778 20.0961C105.083 19.71 105.474 19.3995 105.919 19.1888C106.373 18.977 106.88 18.8681 107.447 18.8681C107.864 18.8681 108.279 18.9438 108.691 19.095C109.104 19.2462 109.493 19.5487 109.859 19.9631V16.0432H112.112V27.5125H109.925V26.404L109.924 26.3994ZM109.875 23.2191C109.875 22.6837 109.83 22.2557 109.724 21.9336C109.618 21.6115 109.485 21.3514 109.283 21.1472C109.089 20.9551 108.877 20.8447 108.647 20.7691C108.425 20.7109 108.196 20.6814 107.965 20.6814C107.724 20.6803 107.486 20.7298 107.265 20.8266C107.044 20.9234 106.854 21.0731 106.686 21.2757C106.518 21.4784 106.388 21.7476 106.293 22.0773C106.198 22.407 106.148 22.8032 106.148 23.2659C106.148 23.768 106.193 24.1885 106.299 24.5272C106.405 24.866 106.515 25.1382 106.677 25.3469C106.839 25.5556 107.025 25.7053 107.24 25.796C107.454 25.8868 107.686 25.9473 107.932 25.9473C108.468 25.9473 108.908 25.7915 109.251 25.4815C109.468 25.2625 109.63 24.9957 109.724 24.7026C109.824 24.3972 109.875 24.004 109.875 23.523V23.2357V23.2191Z" fill="#24292E"/>
<path fill-rule="evenodd" clip-rule="evenodd" d="M74.3891 39.4865C74.3347 40.0974 74.1925 40.6615 73.9626 41.1803C73.7394 41.6885 73.417 42.1471 73.0144 42.5292C72.5876 42.9251 72.0836 43.2284 71.5339 43.42C70.9501 43.6317 70.2726 43.7406 69.4998 43.7406C68.6318 43.7406 67.8665 43.5954 67.2072 43.3066C66.5685 43.0329 66.0017 42.6152 65.5512 42.0861C65.1051 41.5614 64.7708 40.9262 64.5455 40.1806C64.3202 39.4351 64.2083 38.6139 64.2083 37.7156C64.2083 36.784 64.3292 35.9492 64.5773 35.2097C64.8253 34.4701 65.1792 33.8395 65.6389 33.3147C66.0986 32.79 66.6582 32.3877 67.3115 32.1094C67.9648 31.8312 68.7074 31.692 69.5346 31.692C70.2635 31.692 70.9002 31.7828 71.4401 31.9643C71.98 32.1457 72.4382 32.4089 72.8087 32.7507C73.1793 33.0924 73.4742 33.5068 73.701 33.9877C73.9367 34.5047 74.104 35.0502 74.1986 35.6104L71.8167 35.9159C71.6987 35.2414 71.4688 34.7106 71.1361 34.325C70.8034 33.9393 70.262 33.7473 69.5331 33.7473C68.6106 33.7473 67.9104 34.0921 67.4355 34.7832C66.9607 35.4743 66.7172 36.4498 66.7172 37.714C66.7172 38.9889 66.9743 39.9825 67.4824 40.654C67.9497 41.3196 68.7201 41.706 69.5331 41.6823C70.2741 41.6823 70.8186 41.4918 71.1664 41.1122C71.5142 40.7326 71.7305 40.1897 71.8167 39.4819L74.3891 39.4865ZM77.8931 39.7133C77.9461 40.4196 78.1744 40.9337 78.5737 41.2559C78.9729 41.578 79.5672 41.7398 80.3506 41.7398C80.7257 41.7398 81.0433 41.699 81.3004 41.6188C81.5574 41.5387 81.7661 41.4313 81.928 41.2982C82.0824 41.1733 82.2012 41.0101 82.2728 40.8249C82.3442 40.635 82.3795 40.4334 82.3771 40.2305C82.3771 39.9281 82.2667 39.6483 82.0414 39.3867C81.816 39.125 81.4032 38.933 80.8013 38.8165L79.3041 38.5443C78.6992 38.4384 78.1941 38.2978 77.7434 38.1269C77.2927 37.956 76.9147 37.7337 76.6092 37.4615C76.3037 37.1893 76.0708 36.8535 75.9105 36.4573C75.7502 36.0611 75.6685 35.5893 75.6685 35.0433C75.6587 34.5417 75.7718 34.0453 75.9982 33.5975C76.2167 33.182 76.5308 32.8244 76.9147 32.5541C77.3079 32.2758 77.7767 32.0641 78.3211 31.9189C78.8655 31.7737 79.4705 31.7026 80.1238 31.7026C80.9601 31.7026 81.6573 31.7994 82.2153 31.99C82.7733 32.1805 83.224 32.4361 83.5673 32.7537C83.9106 33.0713 84.1647 33.4342 84.331 33.8546C84.4974 34.2751 84.6078 34.7061 84.6637 35.1552L82.3953 35.4426C82.2773 34.8104 82.0505 34.3537 81.7147 34.0769C81.379 33.8002 80.8648 33.6595 80.1782 33.6595C79.7699 33.6595 79.4372 33.6943 79.1725 33.7654C78.9079 33.8365 78.6977 33.9257 78.5374 34.0376C78.3897 34.1342 78.2723 34.2705 78.1986 34.4308C78.1351 34.5821 78.1018 34.7363 78.1018 34.8966C78.1018 35.3246 78.2228 35.6467 78.4648 35.86C78.7067 36.0732 79.1151 36.2411 79.6943 36.359L81.2701 36.6645C82.5147 36.911 83.4267 37.3103 84.0074 37.8592C84.5881 38.4082 84.8755 39.2203 84.8755 40.2441C84.8755 40.7462 84.7817 41.212 84.5942 41.6355C84.4019 42.0633 84.1155 42.4423 83.7563 42.744C83.3477 43.0817 82.8749 43.3332 82.3665 43.4835C81.81 43.6604 81.1567 43.7482 80.4035 43.7482C78.8368 43.7482 77.6391 43.4154 76.8088 42.744C75.9785 42.0725 75.5294 41.0804 75.4477 39.7163H77.8765L77.8931 39.7133ZM88.3281 39.7133C88.381 40.4196 88.6093 40.9337 89.0086 41.2559C89.4078 41.578 90.0067 41.7398 90.7856 41.7398C91.1636 41.7398 91.4782 41.699 91.7383 41.6188C91.9984 41.5387 92.2041 41.4313 92.3659 41.2982C92.5203 41.1733 92.6392 41.0101 92.7107 40.8249C92.7821 40.635 92.8175 40.4334 92.8151 40.2305C92.8106 39.9173 92.6905 39.6167 92.4778 39.3867C92.251 39.125 91.8396 38.933 91.2377 38.8165L89.7405 38.5443C89.1356 38.4384 88.6305 38.2978 88.1798 38.1269C87.7292 37.956 87.3511 37.7337 87.0456 37.4615C86.7401 37.1893 86.5072 36.8535 86.3454 36.4573C86.1836 36.0611 86.1034 35.5893 86.1034 35.0433C86.0929 34.5417 86.2067 34.0453 86.4331 33.5975C86.6539 33.1801 86.9594 32.8308 87.3496 32.5389C87.7398 32.2471 88.2116 32.0489 88.756 31.9038C89.3005 31.7586 89.9054 31.6875 90.5587 31.6875C91.395 31.6875 92.0922 31.7843 92.6502 31.9748C93.2083 32.1654 93.6574 32.421 94.0022 32.7386C94.347 33.0561 94.6011 33.4191 94.7659 33.8395C94.9308 34.2599 95.0427 34.6909 95.0987 35.1401L92.8302 35.4274C92.7122 34.7953 92.4854 34.3386 92.1497 34.0618C91.8139 33.7851 91.2997 33.6444 90.6132 33.6444C90.2048 33.6444 89.8721 33.6792 89.6075 33.7503C89.3428 33.8214 89.1326 33.9106 88.9723 34.0225C88.8247 34.1191 88.7072 34.2554 88.6335 34.4157C88.5685 34.5669 88.5368 34.7212 88.5368 34.8815C88.5368 35.3095 88.6577 35.6316 88.8997 35.8448C89.1417 36.0581 89.55 36.2259 90.1307 36.3439L91.7217 36.6615C92.9663 36.908 93.8782 37.3072 94.4589 37.8562C95.0397 38.4052 95.327 39.2173 95.327 40.2411C95.3331 40.719 95.2364 41.1927 95.0457 41.6309C94.8539 42.0591 94.5675 42.4381 94.2079 42.7394C93.8389 43.057 93.3761 43.302 92.8166 43.4805C92.257 43.6589 91.6067 43.7451 90.8551 43.7451C89.2884 43.7451 88.0906 43.4124 87.2589 42.741C86.4271 42.0695 85.9794 41.0774 85.9159 39.7133H88.3281Z" fill="#24292E"/>
<defs>
<linearGradient id="paint0_linear_2026_133" x1="6.74951" y1="-3.89566" x2="47.0119" y2="63.208" gradientUnits="userSpaceOnUse">
<stop stop-color="#2383AE"/>
<stop offset="1" stop-color="#6DD7B9"/>
</linearGradient>
</defs>
</svg>
