<svg width="120" height="60" viewBox="0 0 120 60" fill="none" xmlns="http://www.w3.org/2000/svg">
<rect width="120" height="60" rx="4" fill="white"/>
<path d="M6.12958 14.0625H34.1296V42.0625H6.12958V14.0625Z" fill="#F7DF1E"/>
<path d="M13.4918 37.4621L15.6346 36.1653C16.0479 36.8983 16.424 37.5184 17.326 37.5184C18.1906 37.5184 18.7357 37.1802 18.7357 35.8646V26.918H21.367V35.9018C21.367 38.6272 19.7695 39.8677 17.4388 39.8677C15.3338 39.8677 14.112 38.7775 13.4918 37.4619" fill="black"/>
<path d="M22.7962 37.1802L24.9387 35.9397C25.5027 36.8608 26.2358 37.5374 27.5326 37.5374C28.6228 37.5374 29.3181 36.9922 29.3181 36.2404C29.3181 35.3382 28.6039 35.0187 27.401 34.4926L26.7433 34.2105C24.8449 33.4024 23.5855 32.3875 23.5855 30.2448C23.5855 28.2713 25.0891 26.7676 27.4386 26.7676C29.1114 26.7676 30.3143 27.3503 31.1788 28.8727L29.1301 30.1883C28.679 29.3802 28.1905 29.0607 27.4387 29.0607C26.6681 29.0607 26.1794 29.5494 26.1794 30.1883C26.1794 30.9778 26.6681 31.2974 27.7957 31.7861L28.4534 32.068C30.6901 33.0266 31.9494 34.0038 31.9494 36.2028C31.9494 38.5712 30.0887 39.8679 27.589 39.8679C25.1456 39.8679 23.5667 38.7027 22.7962 37.1802Z" fill="black"/>
<path d="M40.9949 35.1231C43.0557 35.1231 44.5199 33.9662 44.5199 31.5258V22.6681H42.6037V31.4896C42.6037 32.9177 41.9349 33.4058 40.9045 33.4058C40.0006 33.4058 39.4945 32.8635 39.0606 32.0862L37.506 33.0442C38.0845 34.1831 39.1691 35.1231 40.9949 35.1231ZM51.4072 30.4412H49.3284C47.6111 30.4592 46.3457 31.1462 46.3457 32.7189C46.3457 34.4181 47.5749 35.1231 49.0753 35.1231C50.1961 35.1231 50.9192 34.6892 51.4615 33.8758L51.4072 34.9604H53.233V30.4773C53.233 28.2358 51.8592 27.2054 50.0334 27.2054C48.4245 27.2054 47.5207 27.7658 46.8518 28.5611L47.9003 29.6277C48.3161 29.1577 48.8945 28.7238 49.8888 28.7238C50.8649 28.7238 51.4072 29.23 51.4072 30.4412ZM51.4072 31.7065V32.3031C51.4072 33.1346 50.648 33.6589 49.5815 33.6589C48.6415 33.6589 48.1353 33.3154 48.1353 32.6646C48.1353 31.9958 48.6595 31.7065 49.4549 31.7065H51.4072ZM58.2403 35.1231H58.4753L62.3257 27.3681H60.4638L58.9273 30.7304C58.6561 31.3631 58.4392 32.3754 58.4392 32.3754C58.4392 32.3754 58.2042 31.3631 57.915 30.7304L56.3784 27.3681H54.3538L58.2403 35.1231ZM68.02 30.4412H65.9411C64.2238 30.4592 62.9584 31.1462 62.9584 32.7189C62.9584 34.4181 64.1877 35.1231 65.6881 35.1231C66.8088 35.1231 67.5319 34.6892 68.0742 33.8758L68.02 34.9604H69.8458V30.4773C69.8458 28.2358 68.4719 27.2054 66.6461 27.2054C65.0373 27.2054 64.1334 27.7658 63.4646 28.5611L64.5131 29.6277C64.9288 29.1577 65.5073 28.7238 66.5015 28.7238C67.4777 28.7238 68.02 29.23 68.02 30.4412ZM68.02 31.7065V32.3031C68.02 33.1346 67.2608 33.6589 66.1942 33.6589C65.2542 33.6589 64.7481 33.3154 64.7481 32.6646C64.7481 31.9958 65.2723 31.7065 66.0677 31.7065H68.02ZM75.7389 35.1231C78.0527 35.1231 79.7339 33.8758 79.7339 31.7246C79.7339 29.7542 78.6131 28.7781 76.5162 27.8561L75.7208 27.4946C74.4735 26.9523 73.9492 26.5365 73.9492 25.6146C73.9492 24.7831 74.5639 24.1865 75.54 24.1865C76.4981 24.1865 77.0404 24.5661 77.5104 25.3796L79.0108 24.4577C78.2696 23.1381 77.1669 22.5234 75.54 22.5234C73.4973 22.5234 72.0873 23.825 72.0873 25.6508C72.0873 27.5488 73.1719 28.4527 74.9615 29.2481L75.775 29.6096C77.1127 30.2062 77.8358 30.6762 77.8358 31.7427C77.8358 32.755 76.95 33.4239 75.7027 33.4239C74.2023 33.4239 73.4612 32.6646 72.8827 31.7065L71.31 32.5742C71.9969 33.9662 73.4069 35.1231 75.7389 35.1231ZM85.392 35.1231C86.8562 35.1231 87.7601 34.5989 88.5012 33.7492L87.2539 32.6646C86.8381 33.1346 86.2958 33.5142 85.392 33.5142C84.0362 33.5142 83.2227 32.52 83.2227 31.1642C83.2227 29.8085 84.0362 28.8142 85.392 28.8142C86.1693 28.8142 86.802 29.1758 87.1635 29.7L88.4651 28.6515C87.742 27.7477 86.8201 27.2054 85.392 27.2054C83.0781 27.2054 81.3427 28.9046 81.3427 31.1642C81.3427 33.4419 83.0781 35.1231 85.392 35.1231ZM90.2366 34.9604H92.0624V31.2727C92.0624 29.5735 92.8036 28.9408 93.8882 28.9408C94.3039 28.9408 94.5932 29.0492 94.8824 29.1938L95.497 27.5488C95.1716 27.35 94.792 27.2235 94.2497 27.2235C93.4182 27.2235 92.5505 27.6031 92.0443 28.7961L92.0624 27.3681H90.2366V34.9604ZM97.9555 25.6327C98.6063 25.6327 99.1666 25.1446 99.1666 24.4215C99.1666 23.7346 98.6063 23.2284 97.9555 23.2284C97.3047 23.2284 96.7443 23.7346 96.7443 24.4215C96.7443 25.1446 97.3047 25.6327 97.9555 25.6327ZM97.0335 34.9604H98.8774V27.3681H97.0335V34.9604ZM101.245 38.7927H103.089V33.6589C103.523 34.5085 104.427 35.1231 105.692 35.1231C107.663 35.1231 109.254 33.4419 109.254 31.1462C109.254 28.8504 107.681 27.2054 105.729 27.2054C104.427 27.2054 103.523 27.8381 103.035 28.7781L103.089 27.3681H101.245L101.245 38.7927ZM105.222 33.5142C103.885 33.5142 103.017 32.5742 103.017 31.1462C103.017 29.7723 103.885 28.8323 105.222 28.8323C106.542 28.8323 107.374 29.7723 107.374 31.1462C107.374 32.5742 106.542 33.5142 105.222 33.5142ZM114.008 35.1412C114.984 35.1412 115.581 34.7796 115.96 34.4181L115.092 33.1889C114.894 33.3515 114.622 33.5504 114.189 33.5504C113.719 33.5504 113.429 33.2973 113.429 32.4296V28.9046H115.454V27.3681H113.429V23.4092H111.604V27.3681H110.465V28.9046H111.604V32.3935C111.604 34.4181 112.58 35.1412 114.008 35.1412Z" fill="#04233E"/>
</svg>
