<svg width="120" height="60" viewBox="0 0 120 60" fill="none" xmlns="http://www.w3.org/2000/svg">
<rect width="120" height="60" rx="4" fill="white"/>
<path d="M32.054 44.357C31.9414 44.3572 31.8307 44.3283 31.7327 44.2729C31.6348 44.2175 31.5528 44.1376 31.495 44.041L26.58 35.843L17.388 38.343C17.248 38.3768 17.1007 38.3631 16.9693 38.3041C16.8379 38.2451 16.7298 38.1441 16.662 38.017L5.92 17.825C5.87066 17.7325 5.84443 17.6295 5.84353 17.5247C5.84263 17.4198 5.86709 17.3164 5.91483 17.2231C5.96257 17.1297 6.03217 17.0493 6.11769 16.9887C6.20322 16.9281 6.30213 16.8891 6.406 16.875L15.526 15.649C15.652 15.6315 15.7804 15.6513 15.8952 15.7061C16.01 15.7608 16.1063 15.8481 16.172 15.957L27.172 34.331L39.966 30.851L35.7 24.826C35.6385 24.7404 35.5987 24.641 35.5841 24.5366C35.5695 24.4322 35.5806 24.3257 35.6163 24.2265C35.6521 24.1273 35.7114 24.0383 35.7892 23.9671C35.867 23.8959 35.961 23.8448 36.063 23.818L42.048 22.403C42.1676 22.3746 42.2928 22.3806 42.4091 22.4204C42.5254 22.4602 42.628 22.5322 42.705 22.628L47.885 29.096C47.9525 29.1802 47.998 29.2799 48.0174 29.386C48.0367 29.4922 48.0294 29.6015 47.9959 29.7041C47.9625 29.8067 47.904 29.8993 47.8258 29.9737C47.7476 30.0481 47.6521 30.1018 47.548 30.13L42.108 31.614L46.871 38.314C46.9293 38.3962 46.9678 38.4908 46.9833 38.5904C46.9987 38.69 46.9908 38.7919 46.9602 38.8879C46.9295 38.9839 46.877 39.0715 46.8066 39.1437C46.7363 39.2159 46.6502 39.2708 46.555 39.304L32.26 44.317C32.1936 44.3415 32.1247 44.355 32.054 44.357ZM27.882 35.487L32.337 42.917L45.32 38.372L40.786 31.98L27.882 35.487ZM7.507 18.03L17.56 36.95L25.903 34.686L15.278 16.994L7.507 18.03ZM37.34 24.864L41.34 30.49L46.302 29.14L41.985 23.764L37.34 24.864ZM54.727 22.9H56.027V36.84H54.732L54.727 22.9ZM68.727 26.783V36.84H67.45V35.1C66.955 35.72 66.332 36.228 65.624 36.588C64.6605 37.0486 63.5768 37.1951 62.5256 37.0069C61.4744 36.8187 60.5088 36.3053 59.765 35.539C59.2731 35.0449 58.8858 34.4568 58.6262 33.8098C58.3666 33.1628 58.24 32.47 58.254 31.773C58.2434 31.0826 58.3731 30.3973 58.6353 29.7586C58.8974 29.1198 59.2865 28.5409 59.779 28.057C60.2524 27.5596 60.8237 27.1657 61.4569 26.9002C62.0901 26.6346 62.7714 26.5031 63.458 26.514C64.238 26.504 65.008 26.684 65.7 27.041C66.4027 27.4224 67.006 27.9636 67.461 28.621V26.781L68.727 26.783ZM63.557 27.783C62.8535 27.7784 62.1617 27.9637 61.5547 28.3194C60.9477 28.6751 60.4479 29.188 60.108 29.804C59.385 31.062 59.385 32.609 60.108 33.867C60.451 34.492 60.956 35.013 61.57 35.375C62.1655 35.7305 62.8465 35.9172 63.54 35.915C64.246 35.9152 64.9397 35.7304 65.552 35.379C66.165 35.042 66.672 34.539 67.014 33.929C67.3628 33.2956 67.5397 32.582 67.527 31.859C67.5418 31.3202 67.4475 30.784 67.2499 30.2826C67.0523 29.7812 66.7554 29.3248 66.377 28.941C66.0121 28.5636 65.5732 28.2656 65.0878 28.0659C64.6023 27.8661 64.0808 27.7687 63.556 27.78L63.557 27.783ZM71.149 26.783H72.471V28.253C72.8019 27.7455 73.2261 27.3054 73.721 26.956C74.1242 26.68 74.6004 26.5303 75.089 26.526C75.4955 26.5393 75.8916 26.6575 76.239 26.869L75.561 27.969C75.3419 27.864 75.1037 27.8045 74.861 27.794C74.3929 27.8084 73.9471 27.9978 73.612 28.325C73.154 28.7754 72.8347 29.3477 72.692 29.974C72.5387 30.5473 72.462 31.7053 72.462 33.448V36.851H71.14L71.149 26.783ZM87.349 26.783V36.84H86.073V35.1C85.578 35.72 84.955 36.228 84.247 36.588C83.2835 37.0486 82.1998 37.1951 81.1486 37.0069C80.0974 36.8187 79.1318 36.3053 78.388 35.539C77.8961 35.0449 77.5088 34.4568 77.2492 33.8098C76.9896 33.1628 76.863 32.47 76.877 31.773C76.857 30.378 77.407 29.033 78.404 28.057C78.8774 27.5596 79.4487 27.1657 80.0819 26.9002C80.7151 26.6346 81.3964 26.5031 82.083 26.514C82.863 26.504 83.633 26.684 84.325 27.041C85.0277 27.4224 85.631 27.9636 86.086 28.621V26.781L87.349 26.783ZM82.179 27.783C81.4755 27.7784 80.7837 27.9637 80.1767 28.3194C79.5697 28.6751 79.0699 29.188 78.73 29.804C78.007 31.062 78.007 32.609 78.73 33.867C79.073 34.492 79.578 35.013 80.192 35.375C80.7875 35.7305 81.4685 35.9172 82.162 35.915C82.868 35.9152 83.5617 35.7304 84.174 35.379C84.787 35.042 85.294 34.539 85.636 33.929C85.9848 33.2956 86.1617 32.582 86.149 31.859C86.1653 31.3186 86.0719 30.7806 85.8744 30.2773C85.6769 29.7741 85.3794 29.3161 85 28.931C84.6354 28.5538 84.1968 28.256 83.7117 28.0563C83.2266 27.8565 82.7055 27.759 82.181 27.77L82.179 27.783ZM89.312 26.783H90.692L94.068 34.113L97.408 26.783H98.788L94.188 36.841H93.958L89.312 26.783ZM109.219 33.503L110.319 34.076C110.011 34.7126 109.591 35.289 109.08 35.778C108.62 36.2038 108.083 36.5378 107.498 36.762C106.861 36.9959 106.187 37.1105 105.509 37.1C103.869 37.1 102.586 36.5667 101.659 35.5C100.764 34.4966 100.273 33.1974 100.279 31.853C100.266 30.615 100.681 29.41 101.454 28.453C101.917 27.8395 102.522 27.3463 103.215 27.015C103.909 26.6837 104.673 26.5238 105.441 26.549C106.231 26.5231 107.017 26.6865 107.731 27.0257C108.446 27.3649 109.068 27.8701 109.548 28.499C110.276 29.419 110.643 30.569 110.648 31.949H101.593C101.578 33.016 101.98 34.046 102.713 34.821C103.056 35.1843 103.471 35.4717 103.931 35.6647C104.392 35.8576 104.888 35.9517 105.387 35.941C105.897 35.9414 106.403 35.851 106.882 35.674C107.333 35.5139 107.751 35.2741 108.117 34.966C108.555 34.5436 108.926 34.0574 109.218 33.524L109.219 33.503ZM109.219 30.803C109.089 30.2044 108.832 29.6407 108.465 29.15C108.113 28.72 107.665 28.3783 107.157 28.152C106.624 27.902 106.042 27.772 105.453 27.772C104.514 27.7531 103.604 28.0936 102.908 28.724C102.39 29.1907 101.998 29.8807 101.733 30.794L109.219 30.803ZM112.859 22.911H114.154V36.851H112.859V22.911Z" fill="#EF533F"/>
</svg>
