<svg width="120" height="60" viewBox="0 0 120 60" fill="none" xmlns="http://www.w3.org/2000/svg">
<rect width="120" height="60" rx="4" fill="white"/>
<path d="M79.6061 20.1191H98.7661V23.6561H91.1661V42.2611H87.3651V23.6561H79.6051L79.6061 20.1191ZM48.0941 20.1191V23.6561H32.7361V29.3461H45.0871V32.8821H32.7371V38.7251H48.0941V42.2621H28.9361V23.6561H28.9341V20.1201L48.0941 20.1191ZM57.6621 20.1291H52.6881L70.5021 42.2711H75.4901L66.5821 31.2071L75.4761 20.1461L70.5021 20.1541L64.0921 28.1151L57.6621 20.1291ZM62.7651 35.9451L60.2751 32.8481L52.6741 42.2881H57.6621L62.7651 35.9451Z" fill="black"/>
<path fill-rule="evenodd" clip-rule="evenodd" d="M29.069 42.2613L11.231 20.1113H6.47998V42.2523H10.28V24.8443L24.294 42.2613H29.069Z" fill="black"/>
<path d="M99.6201 42.1278C99.488 42.1296 99.3568 42.105 99.2344 42.0554C99.1119 42.0057 99.0007 41.9321 98.9071 41.8388C98.8114 41.7489 98.7358 41.6398 98.6853 41.5187C98.6348 41.3975 98.6106 41.267 98.6141 41.1358C98.6114 40.8671 98.7091 40.6361 98.9071 40.4428C99.0008 40.3494 99.1122 40.2756 99.2349 40.226C99.3575 40.1764 99.4888 40.1518 99.6211 40.1538C99.8891 40.1538 100.122 40.2505 100.321 40.4438C100.417 40.5318 100.493 40.6388 100.546 40.7579C100.598 40.877 100.625 41.0057 100.625 41.1358C100.625 41.3123 100.576 41.4853 100.483 41.6358C100.393 41.7843 100.266 41.9074 100.115 41.9938C99.9658 42.0828 99.7939 42.1292 99.6201 42.1278ZM106.107 32.8008H107.791V39.2888C107.788 39.8841 107.66 40.3958 107.407 40.8238C107.157 41.2483 106.788 41.5912 106.347 41.8108C105.895 42.0401 105.369 42.1551 104.768 42.1558C104.22 42.1551 103.727 42.0578 103.29 41.8638C102.867 41.6829 102.506 41.3835 102.25 41.0018C101.993 40.6211 101.865 40.1465 101.866 39.5778H103.553C103.556 39.8271 103.611 40.0421 103.72 40.2228C103.828 40.3999 103.983 40.543 104.168 40.6358C104.361 40.7324 104.583 40.7808 104.832 40.7808C105.102 40.7808 105.335 40.7248 105.522 40.6108C105.71 40.4988 105.854 40.3311 105.955 40.1078C106.054 39.8878 106.104 39.6148 106.107 39.2888V32.8008ZM114.72 35.3378C114.706 35.1543 114.65 34.9765 114.558 34.8175C114.465 34.6585 114.338 34.5225 114.185 34.4198C113.868 34.1991 113.459 34.0891 112.956 34.0898C112.646 34.083 112.338 34.1363 112.048 34.2468C111.819 34.3351 111.618 34.4832 111.466 34.6758C111.333 34.8558 111.264 35.0611 111.26 35.2918C111.26 35.4851 111.305 35.6518 111.396 35.7918C111.485 35.9345 111.608 36.0538 111.764 36.1498C111.926 36.2512 112.099 36.3337 112.279 36.3958C112.47 36.4625 112.66 36.5185 112.851 36.5638L113.729 36.7788C114.079 36.858 114.421 36.9685 114.751 37.1088C115.069 37.2401 115.366 37.4162 115.634 37.6318C115.892 37.8391 116.103 38.0984 116.253 38.3928C116.405 38.6894 116.481 39.0381 116.482 39.4388C116.482 39.9781 116.342 40.4534 116.062 40.8648C115.782 41.2728 115.377 41.5925 114.847 41.8238C114.32 42.0531 113.68 42.1681 112.928 42.1688C112.202 42.1688 111.568 42.0568 111.036 41.8338C110.501 41.6131 110.082 41.2891 109.781 40.8618C109.481 40.4351 109.319 39.9158 109.295 39.3038H110.964C110.978 39.5959 111.083 39.8763 111.264 40.1058C111.443 40.3178 111.674 40.4768 111.957 40.5828C112.243 40.6875 112.562 40.7398 112.915 40.7398C113.284 40.7398 113.608 40.6848 113.889 40.5748C114.168 40.4661 114.386 40.3128 114.543 40.1148C114.703 39.9201 114.784 39.6901 114.785 39.4248C114.789 39.2061 114.713 38.9935 114.571 38.8268C114.43 38.6695 114.234 38.5375 113.984 38.4308C113.699 38.3129 113.404 38.2173 113.104 38.1448L112.037 37.8748C111.266 37.6795 110.658 37.3828 110.211 36.9848C109.764 36.5868 109.541 36.0571 109.541 35.3958C109.541 34.8525 109.692 34.3765 109.993 33.9678C110.292 33.5591 110.7 33.2418 111.218 33.0158C111.738 32.7885 112.325 32.6751 112.98 32.6758C113.643 32.6751 114.226 32.7885 114.728 33.0158C115.23 33.2418 115.624 33.5558 115.91 33.9578C116.197 34.3578 116.344 34.8178 116.353 35.3378H114.72Z" fill="black"/>
</svg>
