<svg width="120" height="60" viewBox="0 0 120 60" fill="none" xmlns="http://www.w3.org/2000/svg">
<rect width="120" height="60" rx="4" fill="white"/>
<path d="M26.0405 33.4433C27.96 33.4433 29.5161 31.8873 29.5161 29.9678C29.5161 28.0483 27.96 26.4922 26.0405 26.4922C24.121 26.4922 22.5649 28.0483 22.5649 29.9678C22.5649 31.8873 24.121 33.4433 26.0405 33.4433Z" fill="#00D8FF"/>
<path fill-rule="evenodd" clip-rule="evenodd" d="M26.0405 22.9023C30.7069 22.9023 35.0419 23.5719 38.3105 24.6972C42.2486 26.053 44.6699 28.108 44.6699 29.9689C44.6699 31.9081 42.1038 34.0913 37.8748 35.4925C34.6775 36.5517 30.4701 37.1047 26.0405 37.1047C21.4989 37.1047 17.1983 36.5857 13.965 35.4808C9.87427 34.0826 7.4104 31.8711 7.4104 29.9689C7.4104 28.1231 9.72227 26.084 13.6051 24.7302C16.8858 23.5864 21.3279 22.9023 26.0399 22.9023H26.0405Z" stroke="#00D8FF" stroke-width="1.66272"/>
<path fill-rule="evenodd" clip-rule="evenodd" d="M19.8889 26.4558C22.2202 22.4134 24.9657 18.9926 27.5734 16.7233C30.7153 13.9891 33.7052 12.9183 35.3171 13.8478C36.997 14.8166 37.6063 18.1303 36.7074 22.4937C36.0284 25.7927 34.4049 29.7135 32.192 33.5508C29.9231 37.4851 27.3251 40.9513 24.7529 43.1996C21.4981 46.0448 18.3514 47.0744 16.7036 46.1241C15.1046 45.2027 14.4932 42.1807 15.2602 38.1407C15.9083 34.7273 17.5348 30.5376 19.8881 26.4557L19.8889 26.4558Z" stroke="#00D8FF" stroke-width="1.66272"/>
<path fill-rule="evenodd" clip-rule="evenodd" d="M19.8948 33.5605C17.5569 29.5227 15.9652 25.4349 15.3008 22.0424C14.501 17.9548 15.0665 14.8296 16.677 13.8974C18.3552 12.9258 21.5304 14.0529 24.8617 17.0108C27.3805 19.2472 29.9668 22.6112 32.1862 26.4449C34.4616 30.3754 36.167 34.3574 36.8305 37.7086C37.6699 41.9494 36.9905 45.1897 35.3442 46.1427C33.7468 47.0675 30.8237 46.0884 27.7068 43.4062C25.0732 41.14 22.2557 37.6384 19.8948 33.5604V33.5605Z" stroke="#00D8FF" stroke-width="1.66272"/>
<path fill-rule="evenodd" clip-rule="evenodd" d="M64.62 38.8486L60.36 32.4126C62.513 32.2226 64.453 30.6626 64.453 27.8126C64.453 24.9126 62.395 23.0566 59.508 23.0566H53.168V38.8366H55.132V32.5666H58.279L62.301 38.8366L64.62 38.8486ZM59.273 30.8516H55.133V24.8186H59.273C61.143 24.8186 62.42 26.0486 62.42 27.8236C62.42 29.5986 61.142 30.8536 59.273 30.8536V30.8516ZM71.931 39.1316C73.801 39.1316 75.338 38.5166 76.474 37.3816L75.622 36.2216C74.722 37.1446 73.398 37.6646 72.097 37.6646C69.637 37.6646 68.122 35.8666 67.98 33.7146H77.23V33.2646C77.23 29.8346 75.195 27.1366 71.74 27.1366C68.475 27.1366 66.11 29.8106 66.11 33.1226C66.11 36.6956 68.547 39.1226 71.93 39.1226L71.931 39.1316ZM75.481 32.4116H67.981C68.076 30.6616 69.281 28.6016 71.719 28.6016C74.322 28.6016 75.457 30.7076 75.481 32.4116ZM89.015 38.8476V30.9926C89.015 28.2246 87.005 27.1356 84.591 27.1356C82.721 27.1356 81.255 27.7506 80.025 29.0286L80.853 30.2586C81.87 29.1706 82.983 28.6736 84.355 28.6736C86.011 28.6736 87.242 29.5486 87.242 31.0866V33.1446C86.319 32.0796 85.018 31.5826 83.456 31.5826C81.516 31.5826 79.456 32.7896 79.456 35.3446C79.456 37.8286 81.514 39.1306 83.456 39.1306C84.994 39.1306 86.296 38.5866 87.242 37.5456V38.8456L89.015 38.8476ZM84.095 37.8536C82.439 37.8536 81.279 36.8136 81.279 35.3696C81.279 33.9026 82.439 32.8616 84.095 32.8616C85.349 32.8616 86.555 33.3346 87.242 34.2816V36.4346C86.556 37.3806 85.349 37.8536 84.095 37.8536ZM97.595 39.1316C99.677 39.1316 100.907 38.2796 101.783 37.1446L100.6 36.0566C99.843 37.0736 98.873 37.5466 97.7 37.5466C95.263 37.5466 93.75 35.6536 93.75 33.1226C93.75 30.5916 95.264 28.7226 97.7 28.7226C98.883 28.7226 99.853 29.1726 100.6 30.2126L101.783 29.1246C100.908 27.9886 99.677 27.1376 97.595 27.1376C94.188 27.1376 91.893 29.7406 91.893 33.1236C91.893 36.5306 94.188 39.1236 97.595 39.1236V39.1316ZM107.155 39.1316C108.195 39.1316 108.835 38.8236 109.285 38.3986L108.765 37.0736C108.528 37.3336 108.065 37.5466 107.558 37.5466C106.778 37.5466 106.398 36.9316 106.398 36.0796V28.9816H108.718V27.4206H106.398V24.2976H104.623V27.4206H102.73V28.9826H104.623V36.4596C104.623 38.1636 105.475 39.1336 107.155 39.1336V39.1316Z" fill="#00D8FF"/>
</svg>
