<svg width="120" height="60" viewBox="0 0 120 60" fill="none" xmlns="http://www.w3.org/2000/svg">
<rect width="120" height="60" rx="4" fill="white"/>
<path d="M55.5 40.8997H50.88V41.3797C52.324 41.3797 52.564 41.6797 52.564 43.4977V46.7707C52.564 48.6007 52.324 48.9367 50.88 48.9367C49.773 48.7927 49.003 48.1667 47.992 47.0597L46.789 45.7597C48.377 45.4597 49.244 44.4597 49.244 43.3537C49.244 41.9577 48.041 40.8507 45.779 40.8507H41.255V41.3307C42.699 41.3307 42.939 41.6307 42.939 43.4487V46.7217C42.939 48.5517 42.699 48.8877 41.255 48.8877V49.3677H46.357V48.8877C44.913 48.8877 44.673 48.5507 44.673 46.7217V45.8077H45.106L47.946 49.3677H55.454C59.16 49.3677 60.748 47.3947 60.748 45.0847C60.796 42.8227 59.208 40.8977 55.502 40.8977L55.5 40.8997ZM44.72 45.0867V41.6797H45.78C46.935 41.6797 47.464 42.4977 47.464 43.4127C47.464 44.3277 46.934 45.0967 45.78 45.0967L44.72 45.0867ZM55.597 48.6467H55.404C54.49 48.6467 54.344 48.4067 54.344 47.2507V41.6707H55.594C58.289 41.6707 58.77 43.6437 58.77 45.1357C58.77 46.7237 58.24 48.6487 55.594 48.6487L55.597 48.6467ZM26.912 46.0597L28.692 40.8137C29.222 39.2737 28.992 38.8407 27.344 38.8407V38.3107H32.204V38.8407C30.568 38.8407 30.184 39.2257 29.557 41.1027L26.62 49.8997H26.235L23.588 41.8627L20.94 49.8997H20.603L17.763 41.0927C17.137 39.2157 16.763 38.8307 15.26 38.8307V38.3007H20.94V38.8307C19.4 38.8307 19.015 39.1677 19.544 40.8037L21.277 46.0497L23.877 38.2997H24.357L26.912 46.0597ZM35.67 49.8147C32.83 49.8147 30.52 47.7447 30.52 45.1947C30.52 42.6917 32.82 40.5747 35.67 40.5747C38.52 40.5747 40.82 42.6447 40.82 45.1947C40.82 47.7447 38.52 49.8147 35.67 49.8147ZM35.67 41.3447C33.312 41.3447 32.494 43.4627 32.494 45.1467C32.494 46.8307 33.312 48.9487 35.67 48.9487C38.076 48.9487 38.895 46.8307 38.895 45.1467C38.895 43.5107 38.077 41.3447 35.67 41.3447ZM67.147 48.9477V49.4777H61.227V48.9477C62.96 48.9477 63.247 48.5147 63.247 45.9157V41.7757C63.247 39.1757 62.947 38.7917 61.227 38.7917V38.2617H66.569C69.216 38.2617 70.709 39.6097 70.709 41.4377C70.709 43.2177 69.217 44.6137 66.569 44.6137H65.125V45.9617C65.125 48.5117 65.425 48.9457 67.145 48.9457L67.147 48.9477ZM66.569 39.2257H65.125V43.7017H66.569C68.013 43.7017 68.687 42.7017 68.687 41.4877C68.687 40.2737 68.013 39.2257 66.569 39.2257ZM88.372 47.0697L88.228 47.5497C87.988 48.4157 87.698 48.7047 85.87 48.7047H85.533C84.185 48.7047 83.945 48.4047 83.945 46.5867V45.3837C85.965 45.3837 86.111 45.5767 86.111 46.9237H86.591V43.0737H86.111C86.111 44.4217 85.967 44.6137 83.945 44.6137V41.7297H85.341C87.171 41.7297 87.459 42.0297 87.699 42.8847L87.843 43.3647H88.276L88.083 40.9587H80.527V41.4387C81.971 41.4387 82.211 41.7387 82.211 43.5567V46.8297C82.211 48.5137 82.018 48.9477 80.863 48.9957C79.803 48.8517 79.033 48.2257 78.023 47.1187L76.82 45.8187C78.408 45.5187 79.275 44.5187 79.275 43.4127C79.275 42.0167 78.072 40.9097 75.81 40.9097H71.286V41.3897C72.73 41.3897 72.97 41.6897 72.97 43.5077V46.7807C72.97 48.6107 72.73 48.9467 71.286 48.9467V49.4267H76.388V48.9467C74.944 48.9467 74.704 48.6097 74.704 46.7807V45.8667H75.137L77.977 49.4267H88.565L88.709 47.0207H88.372V47.0697ZM74.752 45.0967V41.6797H75.812C76.967 41.6797 77.496 42.4977 77.496 43.4127C77.496 44.3277 76.966 45.0967 75.812 45.0967H74.752Z" fill="#00749A"/>
<path d="M93.618 49.8139C92.608 49.8139 91.693 49.2839 91.318 48.9479C91.174 49.0919 90.981 49.4779 90.885 49.8139H90.405V46.2539H90.935C91.128 47.9379 92.331 48.9489 93.823 48.9489C94.641 48.9489 95.315 48.4689 95.315 47.6989C95.315 47.0249 94.737 46.4959 93.679 46.0149L92.235 45.3409C91.225 44.8609 90.455 43.9929 90.455 42.8859C90.455 41.6359 91.61 40.5859 93.198 40.5859C94.064 40.5859 94.786 40.8759 95.218 41.2599C95.362 41.1639 95.458 40.8749 95.555 40.5859H96.035V43.6179H95.505C95.312 42.4149 94.639 41.4039 93.291 41.4039C92.569 41.4039 91.895 41.8369 91.895 42.4639C91.895 43.1379 92.425 43.4739 93.675 44.0519L95.071 44.7259C96.321 45.3039 96.804 46.2659 96.804 47.0259C96.756 48.6619 95.36 49.8159 93.628 49.8159L93.618 49.8139Z" fill="#00749A"/>
<path d="M101.56 49.8139C100.55 49.8139 99.635 49.2839 99.26 48.9479C99.116 49.0919 98.923 49.4779 98.827 49.8139H98.347V46.2539H98.877C99.07 47.9379 100.273 48.9489 101.765 48.9489C102.583 48.9489 103.257 48.4689 103.257 47.6989C103.257 47.0249 102.679 46.4959 101.621 46.0149L100.177 45.3409C99.167 44.8609 98.397 43.9929 98.397 42.8859C98.397 41.6359 99.552 40.5859 101.14 40.5859C102.006 40.5859 102.728 40.8759 103.16 41.2599C103.304 41.1639 103.4 40.8749 103.497 40.5859H103.977V43.6179H103.447C103.254 42.4149 102.581 41.4039 101.233 41.4039C100.511 41.4039 99.837 41.8369 99.837 42.4639C99.837 43.1379 100.367 43.4739 101.617 44.0519L103.013 44.7259C104.263 45.3039 104.746 46.2659 104.746 47.0259C104.698 48.6619 103.302 49.8159 101.57 49.8159L101.56 49.8139Z" fill="#00749A"/>
<path d="M46.803 19.4842C46.803 24.7182 49.81 29.2282 54.209 31.3442L47.973 14.1392C47.249 15.8092 46.803 17.5902 46.803 19.4842ZM68.91 18.8142C68.91 17.1992 68.297 16.0302 67.796 15.1942C67.128 14.0802 66.516 13.1892 66.516 12.0762C66.516 10.8512 67.463 9.73623 68.743 9.73623H68.91C66.57 7.56823 63.452 6.28623 60.01 6.28623C55.388 6.34223 51.38 8.68023 48.985 12.2442H49.82C51.212 12.2442 53.328 12.0772 53.328 12.0772C54.052 12.0212 54.108 13.0792 53.428 13.1912C53.428 13.1912 52.704 13.2912 51.925 13.2912L56.725 27.5462L59.62 18.9162L57.56 13.2922L56.168 13.1922C55.444 13.1362 55.555 12.0782 56.224 12.0782C56.224 12.0782 58.396 12.2452 59.676 12.2452C61.068 12.2452 63.184 12.0782 63.184 12.0782C63.908 12.0222 63.964 13.0802 63.284 13.1922C63.284 13.1922 62.56 13.2922 61.781 13.2922L66.581 27.4922L67.917 23.0922C68.474 21.2542 68.919 19.9742 68.919 18.8042L68.91 18.8142ZM60.223 20.6542L56.27 32.1242C57.44 32.4582 58.72 32.6812 60 32.6812C61.56 32.6812 63.007 32.4032 64.4 31.9572C64.344 31.9012 64.344 31.8572 64.3 31.7902L60.223 20.6542ZM71.583 13.1942L71.683 14.5302C71.683 15.8662 71.46 17.3702 70.681 19.2632L66.681 30.9002C70.579 28.6172 73.251 24.3852 73.251 19.4852C73.195 17.2022 72.583 15.0852 71.581 13.1932L71.583 13.1942ZM60 4.11523C51.536 4.11523 44.632 11.0202 44.632 19.4832C44.632 27.9462 51.536 34.8522 60 34.8522C68.464 34.8522 75.368 27.9472 75.368 19.4842C75.368 11.0212 68.464 4.11523 60 4.11523ZM60 34.1832C51.926 34.1832 45.356 27.6132 45.356 19.4832C45.356 11.3992 51.926 4.83923 60 4.83923C68.074 4.83923 74.644 11.4092 74.644 19.4832C74.644 27.6132 68.074 34.1832 60 34.1832Z" fill="#00749A"/>
</svg>
