<svg width="120" height="60" viewBox="0 0 120 60" fill="none" xmlns="http://www.w3.org/2000/svg">
<rect width="120" height="60" rx="4" fill="white"/>
<mask id="mask0_2021_161" style="mask-type:luminance" maskUnits="userSpaceOnUse" x="13" y="8" width="92" height="48">
<path d="M13.6365 31.9835C13.6365 45.0466 34.0469 55.6367 59.2234 55.6367C84.3999 55.6367 104.81 45.0466 104.81 31.9835C104.81 18.9204 84.3999 8.33032 59.2234 8.33032C34.0469 8.33032 13.6365 18.9206 13.6365 31.9835Z" fill="white"/>
</mask>
<g mask="url(#mask0_2021_161)">
<path d="M13.6365 31.9835C13.6365 45.0466 34.0469 55.6367 59.2234 55.6367C84.3999 55.6367 104.81 45.0466 104.81 31.9835C104.81 18.9204 84.3999 8.33032 59.2234 8.33032C34.0469 8.33032 13.6365 18.9206 13.6365 31.9835Z" fill="url(#paint0_radial_2021_161)"/>
</g>
<mask id="mask1_2021_161" style="mask-type:luminance" maskUnits="userSpaceOnUse" x="11" y="5" width="96" height="54">
<path d="M11.7371 5.63731H106.71V58.3301H11.7371V5.63731Z" fill="white"/>
</mask>
<g mask="url(#mask1_2021_161)">
<path d="M59.2234 53.8809C83.4167 53.8809 103.029 44.0774 103.029 31.9841C103.029 19.8908 83.4167 10.0873 59.2234 10.0873C35.0301 10.0873 15.4173 19.8908 15.4173 31.9841C15.4173 44.0774 35.0301 53.8809 59.2234 53.8809Z" fill="#777BB3"/>
</g>
<mask id="mask2_2021_161" style="mask-type:luminance" maskUnits="userSpaceOnUse" x="11" y="5" width="96" height="54">
<path d="M11.7371 5.63731H106.71V58.3301H11.7371V5.63731Z" fill="white"/>
</mask>
<g mask="url(#mask2_2021_161)">
<path d="M38.4043 34.6982C40.3936 34.6982 41.8787 34.3363 42.8182 33.6232C43.7478 32.9173 44.3898 31.694 44.7264 29.9878C45.0401 28.3931 44.9206 27.2795 44.3712 26.6786C43.8095 26.0648 42.5949 25.7536 40.7614 25.7536H37.5825L35.8199 34.6983H38.4041L38.4043 34.6982ZM28.0061 45.7165C27.8585 45.7165 27.7184 45.6514 27.6245 45.5389C27.5781 45.4834 27.5448 45.4184 27.5268 45.3487C27.5089 45.279 27.5068 45.2062 27.5207 45.1356L32.1915 21.4319C32.2134 21.3208 32.2738 21.2206 32.3624 21.1486C32.451 21.0766 32.5623 21.0372 32.6771 21.0372H42.7438C45.9076 21.0372 48.2625 21.8829 49.7426 23.5559C51.2307 25.2359 51.6902 27.5846 51.1083 30.5361C50.8716 31.7386 50.4643 32.8552 49.8981 33.8554C49.3309 34.8564 48.5817 35.7826 47.6705 36.6088C46.5797 37.6158 45.345 38.346 44.0042 38.7757C42.6846 39.1996 40.9901 39.4148 38.9673 39.4148H34.8911L33.727 45.3219C33.7051 45.4331 33.6447 45.5333 33.5562 45.6053C33.4676 45.6773 33.3564 45.7168 33.2416 45.7168H28.0061V45.7165Z" fill="black"/>
<path d="M37.9904 26.2418H40.7618C42.9745 26.2418 43.7433 26.7208 44.0045 27.0062C44.4378 27.4801 44.5196 28.4793 44.2411 29.8957C43.9282 31.4814 43.3481 32.6056 42.5168 33.237C41.6656 33.8833 40.2819 34.2108 38.4046 34.2108H36.4201L37.9904 26.2418ZM42.744 20.5497H32.6772C32.4476 20.5497 32.2252 20.6285 32.048 20.7726C31.8709 20.9167 31.75 21.117 31.7062 21.3393L27.0354 45.0432C27.0076 45.1845 27.0118 45.3301 27.0477 45.4695C27.0836 45.609 27.1504 45.7389 27.2432 45.85C27.336 45.961 27.4525 46.0504 27.5845 46.1118C27.7164 46.1732 27.8605 46.2051 28.0064 46.2051H33.2414C33.4711 46.2051 33.6935 46.1263 33.8707 45.9823C34.0479 45.8382 34.1688 45.6378 34.2126 45.4155L35.2989 39.9031H38.9675C41.0421 39.9031 42.7885 39.68 44.158 39.24C45.5661 38.7887 46.8621 38.0235 48.0087 36.9658C48.9571 36.1051 49.74 35.1391 50.3302 34.0942C50.9205 33.0493 51.3476 31.8834 51.5946 30.6298C52.2071 27.5229 51.7095 25.0349 50.1156 23.2356C48.5373 21.4535 46.0571 20.5499 42.7443 20.5499M35.2202 35.1868H38.4046C40.5151 35.1868 42.0874 34.7948 43.1202 34.0103C44.1531 33.2257 44.8502 31.9164 45.2123 30.0816C45.5585 28.3199 45.4009 27.0768 44.7391 26.3524C44.0772 25.6281 42.7506 25.266 40.7621 25.266H37.1752L35.2204 35.1866M42.7445 21.5255C45.7729 21.5255 47.9822 22.3094 49.3708 23.8772C50.7594 25.4449 51.1774 27.6336 50.6234 30.4434C50.3954 31.6009 50.0097 32.6591 49.4668 33.618C48.9238 34.5769 48.2133 35.4546 47.3361 36.25C46.2908 37.2149 45.1295 37.9024 43.8517 38.3122C42.5738 38.7229 40.9464 38.9273 38.9678 38.9273H34.4837L33.2421 45.2293H28.0071L32.6772 21.5255H42.7441" fill="white"/>
<path d="M63.1118 39.4159C62.9641 39.4159 62.8241 39.3508 62.7303 39.2383C62.6365 39.1257 62.598 38.978 62.6264 38.8349L64.6924 28.3468C64.8889 27.3494 64.8405 26.6335 64.556 26.331C64.3819 26.1461 63.8589 25.8359 62.3125 25.8359H58.5693L55.9716 39.0208C55.9497 39.132 55.8892 39.2322 55.8006 39.3042C55.712 39.3763 55.6008 39.4157 55.486 39.4157H50.2922C50.2192 39.4157 50.1472 39.3998 50.0812 39.3691C50.0152 39.3384 49.9569 39.2937 49.9105 39.2382C49.8641 39.1826 49.8307 39.1177 49.8127 39.0479C49.7948 38.9782 49.7927 38.9054 49.8066 38.8348L54.4774 15.1312C54.4993 15.02 54.5598 14.9198 54.6483 14.8478C54.7369 14.7758 54.8482 14.7364 54.963 14.7364H60.1568C60.2297 14.7364 60.3018 14.7524 60.3678 14.7831C60.4338 14.8137 60.492 14.8585 60.5384 14.914C60.5849 14.9695 60.6182 15.0345 60.6362 15.1042C60.6542 15.1739 60.6563 15.2467 60.6424 15.3174L59.5152 21.0384H63.542C66.6096 21.0384 68.6896 21.5719 69.9015 22.6693C71.1382 23.7889 71.5218 25.5788 71.047 27.9906L68.8738 39.0211C68.8519 39.1323 68.7915 39.2325 68.7029 39.3046C68.6143 39.3766 68.5031 39.416 68.3882 39.416H63.112L63.1118 39.4159Z" fill="black"/>
<path d="M60.1566 14.2473H54.9628C54.7332 14.2473 54.5107 14.3261 54.3335 14.4701C54.1563 14.6142 54.0355 14.8146 53.9916 15.0369L49.3208 38.7405C49.293 38.8818 49.2972 39.0274 49.3332 39.1669C49.3691 39.3063 49.4359 39.4363 49.5287 39.5473C49.6215 39.6583 49.7381 39.7477 49.87 39.8091C50.002 39.8705 50.1461 39.9023 50.292 39.9023H55.4858C55.7154 39.9024 55.9379 39.8236 56.1151 39.6795C56.2923 39.5355 56.4132 39.3351 56.457 39.1128L58.9769 26.3226H62.3125C63.8563 26.3226 64.1803 26.6478 64.1933 26.6618C64.2869 26.761 64.4101 27.2213 64.2068 28.2524L62.1408 38.7405C62.113 38.8818 62.1172 39.0274 62.1531 39.1669C62.1891 39.3063 62.2558 39.4363 62.3486 39.5473C62.4415 39.6583 62.558 39.7477 62.69 39.8091C62.822 39.8705 62.9661 39.9023 63.112 39.9023H68.3882C68.6179 39.9024 68.8403 39.8236 69.0175 39.6795C69.1947 39.5355 69.3156 39.3351 69.3594 39.1128L71.5326 28.0822C72.0425 25.4931 71.6063 23.5507 70.2366 22.3088C68.9294 21.1249 66.7397 20.5491 63.5423 20.5491H60.1154L61.1283 15.4092C61.1561 15.2679 61.1519 15.1223 61.116 14.9827C61.0801 14.8432 61.0133 14.7133 60.9205 14.6023C60.8277 14.4912 60.7111 14.4018 60.5791 14.3404C60.4472 14.279 60.303 14.2471 60.1571 14.2471M60.1571 15.2229L58.9155 21.5249H63.5425C66.4538 21.5249 68.4619 22.0262 69.5673 23.0273C70.6727 24.0285 71.0034 25.6522 70.5619 27.8962L68.3887 38.9266H63.1125L65.1785 28.4387C65.4136 27.2457 65.3272 26.4319 64.9189 25.998C64.5107 25.5641 63.6418 25.3468 62.313 25.3468H58.1615L55.4861 38.9266H50.2923L54.9631 15.2229H60.1569" fill="white"/>
<path d="M79.2649 34.6982C81.2542 34.6982 82.7393 34.3363 83.6788 33.6232C84.6084 32.9173 85.2505 31.6943 85.5872 29.9878C85.901 28.3931 85.7814 27.2795 85.2319 26.6786C84.6701 26.0648 83.4556 25.7536 81.6221 25.7536H78.4431L76.6805 34.6983H79.2647L79.2649 34.6982ZM68.8671 45.7165C68.7195 45.7165 68.5793 45.6514 68.4855 45.5389C68.4391 45.4834 68.4057 45.4184 68.3877 45.3487C68.3697 45.279 68.3676 45.2062 68.3815 45.1356L73.0523 21.4319C73.0742 21.3208 73.1347 21.2206 73.2233 21.1486C73.3119 21.0765 73.4232 21.0372 73.538 21.0372H83.6046C86.7687 21.0372 89.1233 21.8829 90.6036 23.5559C92.0917 25.2359 92.5509 27.5843 91.9693 30.5361C91.7322 31.7386 91.3251 32.8552 90.7587 33.8554C90.1915 34.8564 89.4423 35.7826 88.5312 36.6088C87.4403 37.6158 86.2057 38.346 84.8648 38.7757C83.5453 39.1996 81.8508 39.4148 79.828 39.4148H75.7513L74.5877 45.3219C74.5658 45.4331 74.5053 45.5334 74.4167 45.6054C74.3281 45.6775 74.2168 45.7168 74.1019 45.7168H68.8669L68.8671 45.7165Z" fill="black"/>
<path d="M78.8511 26.2418H81.6224C83.8351 26.2418 84.604 26.7208 84.8652 27.0062C85.2988 27.4801 85.3804 28.4793 85.1018 29.8955C84.7888 31.4812 84.2086 32.6056 83.3774 33.237C82.5263 33.8833 81.1426 34.2108 79.2652 34.2108H77.2812L78.8511 26.2418ZM83.6046 20.5497H73.5379C73.3083 20.5497 73.0858 20.6285 72.9087 20.7726C72.7315 20.9167 72.6107 21.117 72.5669 21.3393L67.8962 45.0432C67.8684 45.1845 67.8726 45.3301 67.9085 45.4695C67.9445 45.609 68.0112 45.7389 68.104 45.85C68.1968 45.961 68.3134 46.0504 68.4453 46.1118C68.5773 46.1732 68.7213 46.2051 68.8672 46.2051H74.1023C74.3319 46.2051 74.5544 46.1263 74.7315 45.9823C74.9087 45.8382 75.0296 45.6378 75.0734 45.4155L76.1595 39.9031H79.8282C81.9027 39.9031 83.6492 39.68 85.0187 39.24C86.4268 38.7887 87.7228 38.0235 88.8697 36.9655C89.8181 36.1051 90.599 35.1391 91.1909 34.0942C91.7828 33.0493 92.2082 31.8834 92.4552 30.6298C93.0678 27.5227 92.5701 25.0348 90.9762 23.2354C89.398 21.4535 86.918 20.5499 83.605 20.5499M76.081 35.1868H79.2652C81.3757 35.1868 82.9481 34.7948 83.9809 34.0103C85.0137 33.2257 85.7108 31.9164 86.0729 30.0816C86.4195 28.3199 86.2617 27.0768 85.5997 26.3524C84.9377 25.6281 83.6112 25.266 81.6227 25.266H78.0359L76.0812 35.1866M83.6051 21.5255C86.6335 21.5255 88.8428 22.3094 90.2314 23.8772C91.6201 25.4449 92.0381 27.6336 91.4841 30.4434C91.256 31.6009 90.8704 32.6591 90.3274 33.618C89.7845 34.5769 89.074 35.4546 88.1968 36.25C87.1514 37.2149 85.9902 37.9024 84.7123 38.3122C83.4345 38.7229 81.8071 38.9273 79.8285 38.9273H75.3443L74.1028 45.2293H68.8677L73.5385 21.5257H83.6053" fill="white"/>
</g>
<defs>
<radialGradient id="paint0_radial_2021_161" cx="0" cy="0" r="1" gradientUnits="userSpaceOnUse" gradientTransform="translate(41.0071 16.6462) scale(59.8621 59.0448)">
<stop stop-color="#AEB2D5"/>
<stop offset="0.3" stop-color="#AEB2D5"/>
<stop offset="0.75" stop-color="#484C89"/>
<stop offset="1" stop-color="#484C89"/>
</radialGradient>
</defs>
</svg>
