<svg width="120" height="60" viewBox="0 0 120 60" fill="none" xmlns="http://www.w3.org/2000/svg">
<rect width="120" height="60" rx="4" fill="white"/>
<path d="M4.83745 13.5762H32.1107C33.4885 13.5762 34.8098 14.1235 35.784 15.0977C36.7583 16.072 37.3056 17.3933 37.3056 18.7711V40.8494C37.3056 42.2272 36.7583 43.5485 35.784 44.5228C34.8098 45.497 33.4885 46.0443 32.1107 46.0443H10.0324C8.65458 46.0443 7.33323 45.497 6.359 44.5228C5.38477 43.5485 4.83745 42.2272 4.83745 40.8494V13.5762Z" fill="#663399"/>
<path d="M31.349 43.4435C30.2973 43.4435 29.4931 43.1376 28.9301 42.523C28.3733 41.9051 28.0833 41.0236 28.0574 39.8723H30.3236C30.3366 40.8905 30.6944 41.4009 31.3977 41.4009C31.7561 41.4009 32.01 41.2872 32.1565 41.0626C32.2997 40.8385 32.3747 40.4804 32.3747 39.9895C32.3747 39.5992 32.2769 39.2739 32.088 39.0171C31.8315 38.7116 31.5024 38.4756 31.1308 38.3307L30.2908 37.9271C29.5421 37.5693 28.9983 37.1466 28.6629 36.6521C28.3372 36.1609 28.1746 35.4716 28.1746 34.5904C28.1746 33.6046 28.4613 32.8046 29.0308 32.1897C29.6168 31.5751 30.4146 31.2695 31.4334 31.2695C32.4172 31.2695 33.1789 31.5718 33.7159 32.1734C34.263 32.7787 34.5494 33.6436 34.5724 34.7754H32.3909C32.4039 34.4053 32.3292 34.0378 32.1727 33.702C32.0493 33.4553 31.8081 33.3316 31.45 33.3316C30.812 33.3316 30.4928 33.7118 30.4928 34.4696C30.4928 34.8537 30.5707 35.1527 30.7272 35.3803C30.9526 35.6321 31.2351 35.8263 31.5509 35.9466L32.3552 36.3011C33.1854 36.6816 33.7844 37.1469 34.1523 37.7096C34.5234 38.269 34.7059 39.0171 34.7059 39.9538C34.7059 41.0759 34.4127 41.9376 33.8169 42.5392C33.2243 43.1409 32.4003 43.4435 31.349 43.4435ZM24.03 43.4435C22.978 43.4435 22.1741 43.1376 21.6108 42.523C21.054 41.9051 20.7644 41.0236 20.7384 39.8723H23.0043C23.0173 40.8905 23.3755 41.4009 24.079 41.4009C24.4368 41.4009 24.6907 41.2872 24.8339 41.0626C24.9807 40.8385 25.0521 40.4804 25.0521 39.9895C25.0521 39.5992 24.958 39.2739 24.769 39.0171C24.5126 38.7116 24.1834 38.4756 23.8118 38.3307L22.9719 37.9271C22.2228 37.5693 21.6793 37.1466 21.3439 36.6521C21.0183 36.1609 20.8556 35.4716 20.8556 34.5904C20.8556 33.6046 21.142 32.8046 21.7118 32.1897C22.2978 31.5751 23.0956 31.2695 24.1144 31.2695C25.0979 31.2695 25.8596 31.5718 26.3937 32.1734C26.9473 32.7787 27.2304 33.6436 27.2531 34.7754H25.0719C25.0849 34.4053 25.0102 34.0378 24.8537 33.702C24.73 33.4553 24.4891 33.3316 24.131 33.3316C23.4927 33.3316 23.1735 33.7118 23.1735 34.4696C23.1735 34.8537 23.2518 35.1527 23.4079 35.3803C23.6333 35.6321 23.9158 35.8263 24.2316 35.9466L25.0359 36.3011C25.8661 36.6816 26.4651 37.1469 26.8333 37.7096C27.2012 38.269 27.3866 39.0171 27.3866 39.9538C27.3866 41.0759 27.0905 41.9376 26.4979 42.5392C25.9054 43.1409 25.0817 43.4435 24.03 43.4435ZM16.4081 43.4435C15.3789 43.4435 14.562 43.1636 13.9565 42.6042C13.3509 42.0483 13.0512 41.2123 13.0512 40.1064V34.6423C13.0512 33.5433 13.3704 32.7105 14.0084 32.1381C14.6565 31.5721 15.5062 31.2861 16.5578 31.2861C17.577 31.2861 18.3809 31.5786 18.9767 32.1575C19.5793 32.7397 19.8819 33.605 19.8819 34.7595V35.192H17.4825V34.7725C17.4825 34.3271 17.3848 33.9985 17.1958 33.7839C17.1133 33.6766 17.0065 33.5903 16.8843 33.532C16.7621 33.4738 16.6279 33.4453 16.4925 33.4488C16.1019 33.4488 15.8253 33.5819 15.6688 33.852C15.5023 34.2257 15.4274 34.6338 15.4506 35.0423V39.7911C15.4506 40.783 15.7993 41.2873 16.4929 41.297C16.8182 41.297 17.0624 41.1798 17.2318 40.9457C17.4159 40.65 17.5035 40.3044 17.4825 39.9567V39.6025H19.8819V39.9733C19.8819 40.7441 19.7322 41.3879 19.4293 41.9019C19.1413 42.4035 18.7092 42.8069 18.189 43.0597C17.6335 43.3249 17.0236 43.4563 16.4081 43.4435Z" fill="white"/>
<path d="M43.3699 41.345H44.5886C44.6225 42.1462 44.8087 42.7274 45.1472 43.0885C45.4745 43.4496 45.9428 43.6302 46.5522 43.6302C47.1616 43.6302 47.6299 43.4496 47.9571 43.0885C48.2618 42.7274 48.4142 42.1914 48.4142 41.4805C48.4142 40.8372 48.2787 40.3576 48.0079 40.0417C47.7032 39.7031 47.2123 39.3928 46.5353 39.1107L45.8413 38.8398C45.0513 38.5239 44.4645 38.1233 44.0808 37.638C43.6859 37.1415 43.4884 36.4926 43.4884 35.6914C43.4884 34.7209 43.7649 33.9423 44.3178 33.3555C44.8595 32.7799 45.6099 32.4922 46.5691 32.4922C47.4832 32.4922 48.2054 32.7574 48.7358 33.2878C49.2662 33.8294 49.5539 34.6419 49.5991 35.7253H48.4142C48.3352 34.326 47.7145 33.6263 46.5522 33.6263C45.9541 33.6263 45.5084 33.7956 45.215 34.1341C44.9103 34.4839 44.7579 34.9805 44.7579 35.6237C44.7579 36.1766 44.8933 36.6167 45.1642 36.944C45.2996 37.102 45.4801 37.26 45.7058 37.418C45.9428 37.5647 46.2249 37.7001 46.5522 37.8242L47.2631 38.095C48.0756 38.4223 48.6794 38.8342 49.0743 39.3307C49.4693 39.8498 49.6668 40.5607 49.6668 41.4635C49.6668 42.513 49.3959 43.3199 48.8543 43.8841C48.3126 44.4596 47.5283 44.7474 46.5014 44.7474C45.4971 44.7474 44.7297 44.4596 44.1993 43.8841C43.6577 43.2973 43.3812 42.4509 43.3699 41.345ZM53.086 36.5885V42.2252C53.086 42.6879 53.1989 43.0321 53.4246 43.2578C53.6503 43.4835 53.9832 43.5963 54.4233 43.5963H54.6602V44.6289H54.3725C52.7362 44.6289 51.9124 43.8446 51.9011 42.276V36.5885H50.767V35.6745H51.9011V33.7956L53.086 33.2539V35.6745H54.7957V36.5885H53.086ZM61.5834 35.6745L58.9597 45.4752C58.7904 46.141 58.497 46.6093 58.0795 46.8802C57.662 47.1623 57.0865 47.3034 56.353 47.3034H56.1837V46.237H56.4714C56.9228 46.237 57.2727 46.1523 57.5209 45.983C57.7579 45.8138 57.9272 45.526 58.0287 45.1198L58.0964 44.832L55.6589 35.6745H56.9454L58.6381 42.513L60.297 35.6745H61.5834ZM62.6667 42.2591V32.6615H63.8686V42.2083C63.8686 43.1224 64.2804 43.5794 65.1042 43.5794H65.3581V44.6289H65.0704C64.2917 44.6289 63.6993 44.4258 63.293 44.0195C62.8755 43.6133 62.6667 43.0265 62.6667 42.2591ZM67.7449 40.4987V41.5651C67.7449 42.355 67.8803 42.9136 68.1511 43.2409C68.4219 43.5794 68.8056 43.7487 69.3021 43.7487C70.2501 43.7487 70.724 43.1506 70.724 41.9544V41.8867H71.892V41.9375C71.892 42.8854 71.6663 43.5907 71.2149 44.0534C70.7635 44.5273 70.1146 44.7643 69.2683 44.7643C67.4627 44.7643 66.56 43.7035 66.56 41.582V38.6875C66.56 37.6493 66.7969 36.8594 67.2709 36.3177C67.7336 35.7873 68.3824 35.5221 69.2175 35.5221C70.0413 35.5221 70.7014 35.7873 71.198 36.3177C71.6719 36.8594 71.9089 37.6493 71.9089 38.6875V40.4987L67.7449 40.4987ZM67.7449 38.7213V39.6016H70.7409V38.6875C70.7409 37.9314 70.6112 37.3897 70.3516 37.0625C70.1034 36.7465 69.731 36.5885 69.2344 36.5885C68.7605 36.5885 68.3937 36.7522 68.1342 37.0794C67.8746 37.4067 67.7449 37.954 67.7449 38.7213ZM76.2422 41.345H77.461C77.4948 42.1462 77.681 42.7274 78.0196 43.0885C78.3468 43.4496 78.8151 43.6302 79.4245 43.6302C80.0339 43.6302 80.5022 43.4496 80.8295 43.0885C81.1342 42.7274 81.2865 42.1914 81.2865 41.4805C81.2865 40.8372 81.1511 40.3576 80.8802 40.0417C80.5756 39.7031 80.0847 39.3928 79.4076 39.1107L78.7136 38.8398C77.9237 38.5239 77.3369 38.1233 76.9532 37.638C76.5582 37.1415 76.3607 36.4926 76.3607 35.6914C76.3607 34.7209 76.6372 33.9423 77.1901 33.3555C77.7318 32.7799 78.4823 32.4922 79.4415 32.4922C80.3555 32.4922 81.0777 32.7574 81.6081 33.2878C82.1385 33.8294 82.4263 34.6419 82.4714 35.7253H81.2865C81.2075 34.326 80.5868 33.6263 79.4245 33.6263C78.8264 33.6263 78.3807 33.7956 78.0873 34.1341C77.7826 34.4839 77.6303 34.9805 77.6303 35.6237C77.6303 36.1766 77.7657 36.6167 78.0365 36.944C78.1719 37.102 78.3525 37.26 78.5782 37.418C78.8151 37.5647 79.0973 37.7001 79.4245 37.8242L80.1355 38.095C80.948 38.4223 81.5517 38.8342 81.9467 39.3307C82.3416 39.8498 82.5391 40.5607 82.5391 41.4635C82.5391 42.513 82.2683 43.3199 81.7266 43.8841C81.1849 44.4596 80.4006 44.7474 79.3737 44.7474C78.3694 44.7474 77.602 44.4596 77.0717 43.8841C76.53 43.2973 76.2535 42.4509 76.2422 41.345ZM84.181 32.6615H85.3659V36.4531C85.569 36.1484 85.8173 35.9171 86.1107 35.7591C86.4267 35.6011 86.7539 35.5221 87.0925 35.5221C87.8034 35.5221 88.362 35.7478 88.7682 36.1992C89.1632 36.6619 89.3607 37.3108 89.3607 38.1458V44.6289H88.1758V38.1966C88.1758 37.6775 88.0517 37.2769 87.8034 36.9948C87.5551 36.724 87.211 36.5885 86.7709 36.5885C86.3533 36.5885 86.0148 36.724 85.7552 36.9948C85.4957 37.2882 85.3659 37.6888 85.3659 38.1966V44.6289H84.181V32.6615ZM92.4076 40.4987V41.5651C92.4076 42.355 92.543 42.9136 92.8138 43.2409C93.0846 43.5794 93.4683 43.7487 93.9649 43.7487C94.9128 43.7487 95.3867 43.1506 95.3867 41.9544V41.8867H96.5547V41.9375C96.5547 42.8854 96.329 43.5907 95.8776 44.0534C95.4262 44.5273 94.7774 44.7643 93.931 44.7643C92.1254 44.7643 91.2227 43.7035 91.2227 41.582V38.6875C91.2227 37.6493 91.4597 36.8594 91.9336 36.3177C92.3963 35.7873 93.0452 35.5221 93.8802 35.5221C94.704 35.5221 95.3642 35.7873 95.8607 36.3177C96.3346 36.8594 96.5716 37.6493 96.5716 38.6875V40.4987L92.4076 40.4987ZM92.4076 38.7213V39.6016H95.4037V38.6875C95.4037 37.9314 95.2739 37.3897 95.0143 37.0625C94.7661 36.7465 94.3937 36.5885 93.8971 36.5885C93.4232 36.5885 93.0564 36.7522 92.7969 37.0794C92.5373 37.4067 92.4076 37.954 92.4076 38.7213ZM99.4661 40.4987V41.5651C99.4661 42.355 99.6016 42.9136 99.8724 43.2409C100.143 43.5794 100.527 43.7487 101.023 43.7487C101.971 43.7487 102.445 43.1506 102.445 41.9544V41.8867H103.613V41.9375C103.613 42.8854 103.388 43.5907 102.936 44.0534C102.485 44.5273 101.836 44.7643 100.99 44.7643C99.184 44.7643 98.2813 43.7035 98.2813 41.582V38.6875C98.2813 37.6493 98.5182 36.8594 98.9922 36.3177C99.4549 35.7873 100.104 35.5221 100.939 35.5221C101.763 35.5221 102.423 35.7873 102.919 36.3177C103.393 36.8594 103.63 37.6493 103.63 38.6875V40.4987L99.4661 40.4987ZM99.4661 38.7213V39.6016H102.462V38.6875C102.462 37.9314 102.332 37.3897 102.073 37.0625C101.825 36.7465 101.452 36.5885 100.956 36.5885C100.482 36.5885 100.115 36.7522 99.8555 37.0794C99.5959 37.4067 99.4661 37.954 99.4661 38.7213ZM107.236 36.5885V42.2252C107.236 42.6879 107.349 43.0321 107.574 43.2578C107.8 43.4835 108.133 43.5963 108.573 43.5963H108.81V44.6289H108.522C106.886 44.6289 106.062 43.8446 106.051 42.276V36.5885H104.917V35.6745H106.051V33.7956L107.236 33.2539V35.6745H108.945V36.5885H107.236ZM110.249 42.2252V42.1237H111.332V42.2252C111.332 42.7218 111.473 43.0942 111.755 43.3424C112.049 43.602 112.432 43.7318 112.906 43.7318C113.358 43.7318 113.719 43.6133 113.99 43.3763C114.26 43.1393 114.396 42.7782 114.396 42.2929C114.396 41.898 114.306 41.5933 114.125 41.3789C114.035 41.266 113.911 41.1645 113.753 41.0742C113.595 40.9726 113.403 40.8767 113.177 40.7864L112.043 40.3125C110.903 39.8385 110.333 39.0599 110.333 37.9766C110.333 37.2318 110.57 36.6337 111.044 36.1823C111.507 35.7422 112.133 35.5221 112.923 35.5221C113.713 35.5221 114.334 35.7478 114.785 36.1992C115.237 36.6506 115.462 37.26 115.462 38.0273V38.2474H114.379V38.1458C114.379 37.638 114.255 37.243 114.006 36.9609C113.758 36.6901 113.391 36.5547 112.906 36.5547C112.489 36.5547 112.15 36.6732 111.891 36.9101C111.642 37.1471 111.518 37.4744 111.518 37.8919C111.518 38.2079 111.597 38.4787 111.755 38.7044C111.902 38.9188 112.184 39.1219 112.602 39.3138L113.736 39.7708C114.345 40.0191 114.802 40.3238 115.107 40.6849C115.411 41.0347 115.564 41.5425 115.564 42.2083C115.564 43.0208 115.327 43.6471 114.853 44.0872C114.368 44.5386 113.707 44.7643 112.872 44.7643C112.06 44.7643 111.422 44.533 110.96 44.0703C110.486 43.6076 110.249 42.9926 110.249 42.2252Z" fill="#04233E"/>
<path d="M48.6716 23.3144V18.321C48.6716 17.1135 48.9706 16.1994 49.5687 15.5788C50.1668 14.9807 50.9567 14.6816 51.9385 14.6816C52.8977 14.6816 53.6707 14.9694 54.2575 15.5449C54.8556 16.143 55.1546 17.0176 55.1546 18.1686V18.321H53.8851V18.2025C53.8851 17.3787 53.7102 16.775 53.3604 16.3913C53.0105 16.0189 52.5422 15.8327 51.9554 15.8327C51.2896 15.8327 50.7875 16.0414 50.4489 16.459C50.1104 16.8765 49.9411 17.5367 49.9411 18.4394V23.3314C49.9411 24.9564 50.6125 25.7801 51.9554 25.8027C52.5535 25.8027 53.0275 25.6109 53.3773 25.2272C53.7158 24.8322 53.8851 24.2454 53.8851 23.4668V23.3144H55.1208V23.4837C55.1208 24.6347 54.8274 25.498 54.2406 26.0735C53.6538 26.6491 52.892 26.9368 51.9554 26.9368C50.9736 26.9368 50.1837 26.6321 49.5856 26.0228C48.9763 25.4247 48.6716 24.5219 48.6716 23.3144ZM61.9762 20.3014V26.8014H60.859V25.972C60.4528 26.6152 59.8434 26.9368 59.0309 26.9368C58.2974 26.9368 57.7332 26.6998 57.3382 26.2259C56.9433 25.7632 56.7458 25.1087 56.7458 24.2624C56.7458 23.4611 56.9771 22.8292 57.4398 22.3665C57.8912 21.9151 58.5513 21.6894 59.4202 21.6894H60.8083V20.2506C60.8083 19.2463 60.3456 18.7441 59.4202 18.7441C58.9914 18.7441 58.6642 18.857 58.4385 19.0827C58.2015 19.3197 58.083 19.6469 58.083 20.0644V20.1999H56.9658V20.0475C56.9658 19.314 57.1915 18.7385 57.6429 18.321C58.0717 17.9034 58.6642 17.6947 59.4202 17.6947C60.244 17.6947 60.876 17.9204 61.3161 18.3717C61.7562 18.8231 61.9762 19.4664 61.9762 20.3014ZM60.8083 24.2285V22.5696H59.5387C58.4667 22.5696 57.9307 23.1282 57.9307 24.2454C57.9307 25.3513 58.3933 25.9099 59.3187 25.9212C59.7814 25.9212 60.1481 25.7745 60.4189 25.4811C60.6785 25.1877 60.8083 24.7702 60.8083 24.2285ZM63.7705 24.3978V24.2962H64.8538V24.3978C64.8538 24.8943 64.9949 25.2667 65.277 25.515C65.5704 25.7745 65.9541 25.9043 66.428 25.9043C66.8794 25.9043 67.2405 25.7858 67.5114 25.5488C67.7822 25.3118 67.9176 24.9507 67.9176 24.4655C67.9176 24.0705 67.8273 23.7658 67.6468 23.5514C67.5565 23.4386 67.4324 23.337 67.2744 23.2467C67.1164 23.1452 66.9246 23.0492 66.6989 22.959L65.5648 22.485C64.425 22.0111 63.8551 21.2324 63.8551 20.1491C63.8551 19.4043 64.0921 18.8062 64.5661 18.3548C65.0287 17.9147 65.655 17.6947 66.445 17.6947C67.2349 17.6947 67.8556 17.9204 68.3069 18.3717C68.7583 18.8231 68.984 19.4325 68.984 20.1999V20.4199H67.9007V20.3183C67.9007 19.8105 67.7766 19.4156 67.5283 19.1335C67.28 18.8626 66.9133 18.7272 66.428 18.7272C66.0105 18.7272 65.672 18.8457 65.4124 19.0827C65.1642 19.3197 65.04 19.6469 65.04 20.0644C65.04 20.3804 65.119 20.6512 65.277 20.8769C65.4237 21.0914 65.7058 21.2945 66.1234 21.4863L67.2575 21.9433C67.8668 22.1916 68.3239 22.4963 68.6286 22.8574C68.9333 23.2072 69.0856 23.715 69.0856 24.3808C69.0856 25.1933 68.8486 25.8196 68.3747 26.2597C67.8894 26.7111 67.2293 26.9368 66.3942 26.9368C65.5817 26.9368 64.9441 26.7055 64.4814 26.2428C64.0075 25.7801 63.7705 25.1651 63.7705 24.3978ZM70.5582 23.89V20.7585C70.5582 19.6977 70.7952 18.9247 71.2692 18.4394C71.7431 17.9429 72.4089 17.6947 73.2666 17.6947C74.1242 17.6947 74.7787 17.9316 75.2301 18.4056C75.6928 18.8908 75.9241 19.6074 75.9241 20.5553V20.8092H74.7392V20.5553C74.7392 19.3591 74.254 18.7611 73.2835 18.7611C72.7644 18.7611 72.3807 18.919 72.1325 19.235C71.8729 19.5623 71.7431 20.1152 71.7431 20.8939V23.7545C71.7431 24.5219 71.8729 25.0692 72.1325 25.3965C72.392 25.7237 72.77 25.8873 73.2666 25.8873C74.2483 25.8873 74.7392 25.2836 74.7392 24.0762V23.8392H75.9241V24.0592C75.9241 25.0071 75.6928 25.7237 75.2301 26.209C74.7787 26.6942 74.1299 26.9368 73.2835 26.9368C72.4146 26.9368 71.7431 26.6886 71.2692 26.192C70.7952 25.6955 70.5582 24.9281 70.5582 23.89ZM82.6949 20.3014V26.8014H81.5778V25.972C81.1715 26.6152 80.5621 26.9368 79.7496 26.9368C79.0161 26.9368 78.4519 26.6998 78.0569 26.2259C77.662 25.7632 77.4645 25.1087 77.4645 24.2624C77.4645 23.4611 77.6958 22.8292 78.1585 22.3665C78.6099 21.9151 79.27 21.6894 80.139 21.6894H81.527V20.2506C81.527 19.2463 81.0643 18.7441 80.139 18.7441C79.7101 18.7441 79.3829 18.857 79.1572 19.0827C78.9202 19.3197 78.8017 19.6469 78.8017 20.0644V20.1999H77.6845V20.0475C77.6845 19.314 77.9102 18.7385 78.3616 18.321C78.7904 17.9034 79.3829 17.6947 80.139 17.6947C80.9627 17.6947 81.5947 17.9204 82.0348 18.3717C82.4749 18.8231 82.6949 19.4664 82.6949 20.3014ZM81.527 24.2285V22.5696H80.2574C79.1854 22.5696 78.6494 23.1282 78.6494 24.2454C78.6494 25.3513 79.1121 25.9099 80.0374 25.9212C80.5001 25.9212 80.8668 25.7745 81.1377 25.4811C81.3972 25.1877 81.527 24.7702 81.527 24.2285ZM84.5738 23.89V20.7585C84.5738 19.7315 84.7939 18.9642 85.234 18.4564C85.6628 17.9486 86.227 17.6947 86.9267 17.6947C87.6941 17.6947 88.2696 18.0332 88.6533 18.7103V14.834H89.8212V26.8014H88.6533V25.9889C88.2583 26.6209 87.6828 26.9368 86.9267 26.9368C86.227 26.9368 85.6628 26.6829 85.234 26.1751C84.7939 25.6786 84.5738 24.9169 84.5738 23.89ZM88.6533 23.7715V20.9108C88.6533 19.4776 88.1567 18.7611 87.1637 18.7611C86.2271 18.7611 85.7587 19.472 85.7587 20.8939V23.7545C85.7587 24.5219 85.8772 25.0692 86.1142 25.3965C86.3512 25.7237 86.701 25.8873 87.1637 25.8873C87.6489 25.8873 88.0213 25.7068 88.2809 25.3457C88.5291 24.9959 88.6533 24.4711 88.6533 23.7715ZM91.971 17.847H93.1389V26.8014H91.971V17.847ZM91.971 14.8509H93.1559V16.4251H91.971V14.8509ZM95.2887 17.847H96.4397V18.6595C96.609 18.3661 96.8516 18.1291 97.1676 17.9486C97.4948 17.7793 97.839 17.6947 98.2001 17.6947C98.9111 17.6947 99.4696 17.926 99.8759 18.3887C100.271 18.8513 100.468 19.4946 100.468 20.3183V26.8014H99.2835V20.3691C99.2835 19.85 99.1593 19.4494 98.9111 19.1673C98.6628 18.8965 98.3186 18.7611 97.8785 18.7611C97.4497 18.7611 97.1111 18.9021 96.8629 19.1842C96.6033 19.4776 96.4736 19.8726 96.4736 20.3691V26.8014H95.2887V17.847ZM102.432 27.3431H103.566C103.577 27.7155 103.713 28.0145 103.972 28.2402C104.221 28.4659 104.548 28.5787 104.954 28.5787C105.462 28.5787 105.834 28.4151 106.071 28.0879C106.297 27.7606 106.41 27.2754 106.41 26.6321V25.3118C106.026 25.9325 105.451 26.2428 104.683 26.2428C103.984 26.2428 103.419 25.9889 102.99 25.4811C102.55 24.9846 102.33 24.2285 102.33 23.2129V20.7415C102.33 19.7259 102.55 18.9642 102.99 18.4564C103.419 17.9486 103.984 17.6947 104.683 17.6947C105.451 17.6947 106.026 18.0332 106.41 18.7103V17.847H107.578V26.5306C107.578 27.4672 107.363 28.2176 106.934 28.7819C106.517 29.3348 105.857 29.6113 104.954 29.6113C104.164 29.6113 103.555 29.4082 103.126 29.0019C102.686 28.5957 102.454 28.0427 102.432 27.3431ZM106.41 23.0775V20.8939C106.41 19.472 105.913 18.7611 104.92 18.7611C104.48 18.7611 104.136 18.919 103.888 19.235C103.639 19.551 103.515 20.0983 103.515 20.8769V23.0775C103.515 23.8335 103.634 24.3752 103.871 24.7025C104.108 25.0297 104.457 25.1933 104.92 25.1933C105.405 25.1933 105.778 25.0128 106.037 24.6517C106.286 24.3018 106.41 23.7771 106.41 23.0775Z" fill="#04233E"/>
</svg>
