<svg width="120" height="60" viewBox="0 0 120 60" fill="none" xmlns="http://www.w3.org/2000/svg">
<rect width="120" height="60" rx="4" fill="white"/>
<path d="M106.784 25.3301C106.513 25.3301 106.249 25.3861 106.016 25.5182L98.6298 29.7834C98.1519 30.0586 97.8613 30.5789 97.8613 31.132V39.6472C97.8613 40.2001 98.1519 40.7195 98.6298 40.9956L100.559 42.1071C101.496 42.5692 101.841 42.5618 102.268 42.5618C103.655 42.5618 104.447 41.7198 104.447 40.2565V31.8558C104.447 31.737 104.345 31.652 104.228 31.652H103.303C103.184 31.652 103.083 31.7392 103.083 31.8558V40.2609C103.083 40.9095 102.408 41.562 101.311 41.0137L99.3063 39.8377C99.2355 39.7991 99.1808 39.7287 99.1808 39.6496V31.1344C99.1808 31.0538 99.2348 30.9714 99.3063 30.9306L106.677 26.6807C106.746 26.641 106.828 26.641 106.896 26.6807L114.266 30.9306C114.337 30.9727 114.392 31.0512 114.392 31.1344V39.6496C114.392 39.7309 114.351 39.8141 114.282 39.8533L106.896 44.1033C106.831 44.141 106.744 44.141 106.677 44.1033L104.779 42.9743C104.723 42.9412 104.646 42.9438 104.591 42.9743C104.068 43.2712 103.969 43.3056 103.478 43.476C103.357 43.5181 103.173 43.5837 103.541 43.7899L106.018 45.2501C106.254 45.3866 106.517 45.4539 106.787 45.4539C107.06 45.4539 107.319 45.3885 107.555 45.2501L114.941 41.0002C115.419 40.7221 115.71 40.2047 115.71 39.6517V31.1366C115.71 30.5834 115.419 30.0643 114.941 29.7879L107.555 25.5227C107.324 25.3907 107.058 25.3347 106.787 25.3347L106.784 25.3301ZM108.76 31.4147C106.657 31.4147 105.404 32.3098 105.404 33.7982C105.404 35.411 106.647 35.8564 108.666 36.0561C111.081 36.2925 111.269 36.6471 111.269 37.1225C111.269 37.947 110.612 38.2985 109.058 38.2985C107.106 38.2985 106.677 37.8112 106.533 36.8383C106.516 36.7341 106.436 36.6502 106.33 36.6502H105.371C105.313 36.6515 105.258 36.675 105.217 36.7159C105.176 36.7568 105.152 36.8119 105.151 36.8697C105.151 38.1126 105.827 39.5824 109.056 39.5824C111.393 39.5824 112.741 38.6671 112.741 37.0578C112.741 35.4667 111.652 35.0367 109.385 34.7366C107.097 34.4315 106.876 34.2855 106.876 33.7487C106.876 33.3058 107.061 32.7134 108.758 32.7134C110.273 32.7134 110.833 33.0404 111.063 34.0621C111.083 34.158 111.168 34.2364 111.267 34.2364H112.226C112.285 34.2364 112.342 34.2003 112.383 34.158C112.423 34.1129 112.451 34.0621 112.446 34.0011C112.297 32.2414 111.124 31.4136 108.761 31.4136L108.76 31.4147Z" fill="#83CD29"/>
<path d="M63.3627 14.1683C63.2802 14.1684 63.1991 14.19 63.1275 14.231C63.0563 14.2727 62.9971 14.3322 62.9559 14.4037C62.9146 14.4752 62.8927 14.5563 62.8923 14.6388V26.635C62.8923 26.7527 62.8374 26.8582 62.7354 26.9172C62.6854 26.9464 62.6286 26.9617 62.5708 26.9617C62.5129 26.9617 62.4561 26.9464 62.4061 26.9172L60.4459 25.7883C60.3029 25.7055 60.1407 25.662 59.9755 25.662C59.8103 25.662 59.648 25.7055 59.505 25.7883L51.6803 30.3043C51.3879 30.473 51.2096 30.7978 51.2096 31.1353V40.1677C51.2093 40.333 51.2527 40.4954 51.3353 40.6386C51.418 40.7817 51.5369 40.9005 51.6801 40.983L59.505 45.4993C59.6479 45.5822 59.8102 45.6259 59.9755 45.6259C60.1407 45.6259 60.303 45.5822 60.4459 45.4993L68.2708 40.983C68.414 40.9005 68.533 40.7817 68.6156 40.6386C68.6982 40.4954 68.7416 40.333 68.7414 40.1677V17.6495C68.7414 17.3069 68.5544 16.9854 68.2553 16.8185L63.5981 14.2151C63.5248 14.1744 63.4438 14.1674 63.3627 14.1683ZM13.0259 25.443C12.8766 25.4491 12.7364 25.4751 12.6024 25.5529L4.7777 30.0689C4.63436 30.1513 4.51536 30.2701 4.43275 30.4133C4.35015 30.5565 4.3069 30.719 4.30738 30.8843L4.32329 43.0062C4.32329 43.1749 4.41047 43.3314 4.55867 43.4138C4.70404 43.501 4.88428 43.501 5.029 43.4138L9.67059 40.7479C9.96482 40.5735 10.1566 40.2692 10.1566 39.9327V34.2716C10.1566 33.9338 10.3342 33.6243 10.6274 33.4565L12.6033 32.3118C12.7461 32.2288 12.9084 32.1854 13.0736 32.1863C13.2389 32.1853 13.4013 32.2287 13.5441 32.3118L15.5192 33.4558C15.8119 33.6236 15.9895 33.9336 15.9895 34.2709V39.9319C15.9895 40.2688 16.1857 40.5748 16.4755 40.747L21.1171 43.4129C21.2631 43.5001 21.4429 43.5001 21.5874 43.4129C21.7313 43.3301 21.8228 43.1738 21.8228 43.0053L21.8385 30.8838C21.8394 30.7184 21.7964 30.5558 21.7137 30.4125C21.6311 30.2692 21.5118 30.1505 21.3682 30.0685L13.5435 25.5527C13.4112 25.4751 13.2704 25.4489 13.12 25.4428H13.0263L13.0259 25.443ZM83.3405 25.5529C83.1753 25.5524 83.0129 25.5957 82.8699 25.6784L75.045 30.1947C74.753 30.3636 74.5743 30.6724 74.5743 31.0098V40.0421C74.5743 40.3817 74.7656 40.6894 75.0603 40.8573L82.8224 45.2816C83.109 45.445 83.4588 45.4575 83.7476 45.2968L88.452 42.678C88.6013 42.5952 88.7022 42.4404 88.7026 42.2704C88.703 42.1004 88.6148 41.9474 88.4672 41.8629L80.595 37.3466C80.4477 37.2625 80.3444 37.0922 80.3444 36.9231V34.0988C80.3444 33.9301 80.449 33.7753 80.595 33.6912L83.0412 32.2798C83.1868 32.1957 83.3655 32.1957 83.512 32.2798L85.9593 33.6912C86.031 33.7324 86.0905 33.7917 86.1318 33.8633C86.1731 33.9349 86.1947 34.0161 86.1945 34.0988V36.3255C86.1943 36.4082 86.2159 36.4894 86.2572 36.561C86.2985 36.6325 86.358 36.6919 86.4296 36.7331C86.5763 36.8176 86.7539 36.8181 86.9004 36.7331L91.5889 34.005C91.8798 33.8359 92.0596 33.5262 92.0596 33.1899V31.0105C92.0596 30.8452 92.0162 30.6829 91.9336 30.5398C91.851 30.3967 91.7322 30.2778 91.5891 30.1951L83.8112 25.6789C83.6683 25.5961 83.5059 25.5528 83.3407 25.5533L83.3405 25.5529ZM59.944 32.2961C59.9878 32.2959 60.0309 32.3066 60.0695 32.3273L62.7509 33.8797C62.8237 33.9218 62.8764 33.9996 62.8764 34.0835V37.1884C62.8764 37.2727 62.8241 37.3503 62.7509 37.3921L60.0695 38.9446C59.9965 38.986 59.9074 38.986 59.8341 38.9446L57.1527 37.3921C57.0797 37.3501 57.0272 37.2723 57.0272 37.1884V34.0831C57.0272 33.9989 57.0799 33.9218 57.1527 33.8793L59.8341 32.3271C59.8707 32.3059 59.903 32.2961 59.944 32.2961Z" fill="#404137"/>
<path d="M36.5321 25.5061C36.3669 25.5058 36.2045 25.5491 36.0614 25.6316L28.2364 30.1322C27.944 30.3009 27.7661 30.6259 27.7661 30.9632V39.9956C27.7657 40.1608 27.809 40.3233 27.8915 40.4664C27.9741 40.6096 28.0931 40.7284 28.2364 40.8107L36.0614 45.327C36.2043 45.4099 36.3666 45.4536 36.5318 45.4536C36.697 45.4536 36.8593 45.4099 37.0022 45.327L44.8271 40.8107C44.9704 40.7282 45.0893 40.6094 45.1719 40.4662C45.2545 40.3231 45.2979 40.1606 45.2977 39.9954V30.963C45.2977 30.6252 45.1198 30.3005 44.8269 30.132L37.002 25.6314C36.859 25.5485 36.6965 25.5052 36.5313 25.5059L36.5321 25.5061ZM83.3251 33.5664C83.294 33.5664 83.2593 33.5664 83.231 33.5816L81.7256 34.46C81.6976 34.4755 81.6741 34.4982 81.6576 34.5257C81.6411 34.5532 81.6321 34.5846 81.6315 34.6167V36.3417C81.6315 36.4067 81.6692 36.4659 81.7256 36.4986L83.231 37.361C83.2568 37.3771 83.2867 37.3855 83.3171 37.3855C83.3475 37.3855 83.3773 37.3771 83.4032 37.361L84.9085 36.4986C84.9643 36.4666 85.0027 36.4067 85.0027 36.3417V34.6167C85.0027 34.5517 84.9645 34.4924 84.9085 34.4597L83.4032 33.5814C83.3753 33.5649 83.3561 33.5662 83.3247 33.5662L83.3251 33.5664Z" fill="#83CD29"/>
</svg>
